<svg xmlns="http://www.w3.org/2000/svg" xmlns:xlink="http://www.w3.org/1999/xlink" viewBox="0 0 191.95 135.91"><defs><style>.a{fill:#fff;}.b{mask:url(#a);}.c,.e{}.c{fill-rule:evenodd;}.d{mask:url(#c);}.f{filter:url(#d);}.g{filter:url(#b);}</style><filter id="b" x="37.06" y="98.21" width="121.75" height="38.68" filterUnits="userSpaceOnUse" color-interpolation-filters="sRGB"><feColorMatrix values="-1 0 0 0 1 0 -1 0 0 1 0 0 -1 0 1 0 0 0 1 0" result="invert"/><feFlood flood-color="#fff" result="bg"/><feBlend in="invert" in2="bg"/></filter><mask id="a" x="35.1" y="97.23" width="121.75" height="38.68" maskUnits="userSpaceOnUse"><g class="g"><g transform="translate(-1.96 -0.98)"><path class="a" d="M57,112.53l6.2,2.2a.48.48,0,0,1,.29.62l-.23.67a.49.49,0,0,1-.62.29l-4.31-1.52a.48.48,0,0,0-.61.29l-.87,2.44a.48.48,0,0,0,.3.62l3.47,1.23a.51.51,0,0,1,.31.66l-.23.66a.49.49,0,0,1-.62.29l-3.5-1.24a.49.49,0,0,0-.62.29l-1.06,3a.49.49,0,0,0,.3.62l4.48,1.59a.49.49,0,0,1,.29.62l-.24.69a.49.49,0,0,1-.62.29l-6.38-2.26a.48.48,0,0,1-.29-.62l3.94-11.12A.49.49,0,0,1,57,112.53Z"/><path class="a" d="M70,116.63l1.09.21a.47.47,0,0,1,.39.44l.57,6.48c.15,1.51.19,2.79.35,4.33h.08c.71-1.36,1.25-2.53,1.94-3.88l3-5.81a.48.48,0,0,1,.52-.25l1,.19a.48.48,0,0,1,.33.71l-5.86,10.88a.48.48,0,0,1-.52.25l-1.64-.32a.48.48,0,0,1-.38-.42l-1.4-12.29A.49.49,0,0,1,70,116.63Z"/><path class="a" d="M86.58,119.22l6.57.4a.49.49,0,0,1,.45.51l0,.72a.49.49,0,0,1-.52.45L88.49,121a.49.49,0,0,0-.52.45l-.16,2.59a.5.5,0,0,0,.46.51l3.7.23a.48.48,0,0,1,.46.51l-.05.73a.47.47,0,0,1-.51.45l-3.71-.23a.48.48,0,0,0-.51.46l-.2,3.15a.5.5,0,0,0,.46.52l4.74.29a.5.5,0,0,1,.46.51l0,.73a.48.48,0,0,1-.51.46L85.79,132a.49.49,0,0,1-.45-.51l.73-11.78A.47.47,0,0,1,86.58,119.22Z"/><path class="a" d="M101.88,119.63l1.3-.1a.5.5,0,0,1,.44.22l4.59,6.94,1.52,2.61h.09c-.2-1.31-.46-2.84-.56-4.22l-.38-5.45a.48.48,0,0,1,.45-.52l.93-.07a.49.49,0,0,1,.52.45l.83,11.77a.48.48,0,0,1-.45.52l-1.29.09a.48.48,0,0,1-.44-.22l-4.6-7-1.52-2.57h-.08c.19,1.31.45,2.77.55,4.16l.39,5.52a.49.49,0,0,1-.45.52l-.94.06a.48.48,0,0,1-.51-.45l-.83-11.77A.47.47,0,0,1,101.88,119.63Z"/><path class="a" d="M121.32,119l-2.72.58a.48.48,0,0,1-.57-.37l-.15-.7a.49.49,0,0,1,.37-.58l8.37-1.77a.49.49,0,0,1,.58.37l.15.7a.5.5,0,0,1-.38.58l-2.73.58a.49.49,0,0,0-.38.57l2.1,9.9a.48.48,0,0,1-.37.57l-1,.22a.49.49,0,0,1-.57-.38l-2.09-9.89A.5.5,0,0,0,121.32,119Z"/><path class="a" d="M136.34,124.58l.3-.81a.49.49,0,0,1,.62-.28,4.84,4.84,0,0,0,3.27.08c1.45-.53,2-1.51,1.65-2.52s-1.33-1.14-2.62-1.23l-1.92-.11a3.67,3.67,0,0,1-3.59-2.27c-.68-1.89.47-3.91,2.75-4.74a5.49,5.49,0,0,1,3.75,0,.48.48,0,0,1,.28.62l-.24.68a.5.5,0,0,1-.6.3,3.84,3.84,0,0,0-2.59,0c-1.23.44-1.81,1.32-1.47,2.28s1.48,1.07,2.6,1.11l1.9.11c1.64.09,3,.6,3.62,2.36.7,1.92-.33,4.07-3,5a6.37,6.37,0,0,1-4.47,0A.48.48,0,0,1,136.34,124.58Z"/></g></g></mask><filter id="d" x="34.55" y="0.98" width="126.92" height="107.94" filterUnits="userSpaceOnUse" color-interpolation-filters="sRGB"><feColorMatrix values="-1 0 0 0 1 0 -1 0 0 1 0 0 -1 0 1 0 0 0 1 0" result="invert"/><feFlood flood-color="#fff" result="bg"/><feBlend in="invert" in2="bg"/></filter><mask id="c" x="32.59" y="0" width="126.92" height="107.94" maskUnits="userSpaceOnUse"><g class="f"><g transform="translate(-1.96 -0.98)"><path class="a" d="M75,97.76a.58.58,0,0,1-.62-.15,35.79,35.79,0,0,0-3-2.81.59.59,0,0,1,.22-1,51.3,51.3,0,0,0,13-5.58.53.53,0,0,1,.53,0L89,89.72a.58.58,0,0,1,.11,1A68,68,0,0,1,75,97.76Z"/><path class="a" d="M100.89,86.75v7c0,2.57-.55,3.8-2.57,4.47s-4.74.79-8.71.8a.6.6,0,0,1-.58-.44,16.3,16.3,0,0,0-1.34-3.25.59.59,0,0,1,.54-.85,48.12,48.12,0,0,0,6,0h0c.84,0,1.14-.25,1.14-.92V87.19a.58.58,0,0,0-.61-.58c-13.74.84-17,1.13-18.75,1.65a.57.57,0,0,1-.72-.42c-.2-.88-.52-2.12-.84-3.09A.56.56,0,0,1,75,84a36,36,0,0,0,7.23-1.9c1.29-.36,3.61-1.1,6.53-2.17a.29.29,0,0,0-.11-.56c-5.89.26-7.93.43-9,.67a.58.58,0,0,1-.69-.46,22.05,22.05,0,0,0-.82-3,.58.58,0,0,1,.47-.76,24.46,24.46,0,0,0,4.24-1c1.08-.31,3.29-1,5.93-2a.29.29,0,0,0-.1-.56c-.72,0-1.52,0-2.35-.07a.57.57,0,0,1-.54-.48,8.23,8.23,0,0,0-.4-1.57.58.58,0,0,1,.58-.79c1.33.08,2.4.12,3,.12A1.91,1.91,0,0,0,90.55,69h0a.28.28,0,0,0-.2-.48H74.26a.62.62,0,0,1-.6-.72c.3-1.67.59-3.71.89-5.84A.59.59,0,0,0,74,61.3H70.75a.58.58,0,0,1-.58-.58V58.63a.58.58,0,0,1,.58-.58h3.69a.57.57,0,0,0,.57-.5c.18-1.29.32-2.6.42-3.87a.29.29,0,0,0-.49-.23c-.39.38-.79.75-1.17,1.1a.59.59,0,0,1-.73,0,29.44,29.44,0,0,0-2.92-1.87.58.58,0,0,1-.07-1,23.81,23.81,0,0,0,7.15-8.87.57.57,0,0,1,.66-.33l3.47.82a.58.58,0,0,1,.38.83l-.26.51a.58.58,0,0,0,.51.85H98.41a.58.58,0,0,1,.58.58v2.33a.58.58,0,0,1-.58.58H78.94a.3.3,0,0,0-.23.11c-.4.53-.83,1.06-1.24,1.56a.29.29,0,0,0,.23.47H96.6a.58.58,0,0,1,.58.62c0,.38-.05.84-.09,1.09-.12,2-.24,3.61-.36,5.14h3a.58.58,0,0,1,.58.58v2.09a.58.58,0,0,1-.58.58H96.9a.57.57,0,0,0-.58.53c-.1,1.11-.22,2.05-.35,2.9a.59.59,0,0,0,.58.67H98a.58.58,0,0,1,.58.58v2a.58.58,0,0,1-.58.58H95.41a.29.29,0,0,0-.28.2,7.68,7.68,0,0,1-.45,1.15.29.29,0,0,0,.39.39c.73-.34,1.43-.67,2.14-1.05a.58.58,0,0,1,.68.1l2.21,2.22a.58.58,0,0,1-.18.94c-2.21,1-4.48,1.83-6.76,2.6a.29.29,0,0,0,.1.57l6.28-.14a1.92,1.92,0,0,0,.71-.15c2.55-1.12,5.09-2.28,7.39-3.54a.58.58,0,0,1,.72.12l2.18,2.5a.58.58,0,0,1-.18.91,146.26,146.26,0,0,1-17.12,6.93.29.29,0,0,0,.11.57l16.19-.9a.58.58,0,0,0,.32-1l-1.65-1.25a.58.58,0,0,1,.07-1L111,77.2a.58.58,0,0,1,.62,0,135.1,135.1,0,0,1,11.22,9,.58.58,0,0,1-.09.91L119.78,89a.58.58,0,0,1-.73-.1c-.86-.9-2.06-2-3.37-3.16a1.9,1.9,0,0,0-1.39-.47l-12.86.89A.58.58,0,0,0,100.89,86.75Z"/><path class="a" d="M123.73,94.93l-3.3,2.42a.59.59,0,0,1-.66,0A96.7,96.7,0,0,0,106.67,91a.58.58,0,0,1-.1-1l3-2a.57.57,0,0,1,.52-.06A107.6,107.6,0,0,1,123.67,94,.58.58,0,0,1,123.73,94.93Z"/><path class="a" d="M125.59,68.29a18,18,0,0,0-2.26,3.11.58.58,0,0,1-.7.26A31.77,31.77,0,0,1,112,65.53a.57.57,0,0,0-.73,0,41.07,41.07,0,0,1-9,5.15.57.57,0,0,1-.7-.21,34.26,34.26,0,0,0-2.21-2.82.58.58,0,0,1,.25-.93,31.55,31.55,0,0,0,8.41-4.43.58.58,0,0,0,.11-.82,32.76,32.76,0,0,1-3.21-4.92.58.58,0,0,0-1-.1,22.66,22.66,0,0,1-1.88,2,.57.57,0,0,1-.82,0,24.75,24.75,0,0,0-2.72-2.55.59.59,0,0,1,0-.89,25.34,25.34,0,0,0,7-11.82.58.58,0,0,1,.66-.41l3.74.7a.59.59,0,0,1,.45.74c-.24.81-.51,1.61-.8,2.39a.58.58,0,0,0,.55.78h14.72a.58.58,0,0,1,.59.59v2.93a.58.58,0,0,1-.59.59H121.5a.57.57,0,0,0-.55.39,29.46,29.46,0,0,1-5.52,9.67.58.58,0,0,0,.08.84,29.55,29.55,0,0,0,9.82,5A.58.58,0,0,1,125.59,68.29Z"/></g></g></mask></defs><g class="b"><path class="c" d="M97.94,136.89c-24.78,0-46.79-6.26-60.68-16a.47.47,0,0,1-.2-.39V98.7a.48.48,0,0,1,.76-.4c13.9,9.48,35.66,15.58,60.12,15.58s46.21-6.1,60.12-15.58a.48.48,0,0,1,.75.4v21.84a.47.47,0,0,1-.2.39c-13.89,9.7-35.9,16-60.67,16Z" transform="translate(-1.96 -0.98)"/></g><g class="d"><path class="e" d="M160.93,48.83a1.76,1.76,0,0,0-1-3l-40.49-5.88a2.31,2.31,0,0,1-1.75-1.28L99.6,2a1.76,1.76,0,0,0-3.17,0L78.31,38.66a2.31,2.31,0,0,1-1.75,1.28L36.07,45.82a1.76,1.76,0,0,0-1,3L64.39,77.4a2.31,2.31,0,0,1,.67,2.06l-4,23.32a1.42,1.42,0,0,0,1,1.6,120.61,120.61,0,0,0,22.39,4.53,1.42,1.42,0,0,0,.81-.15l11.3-6a3.18,3.18,0,0,1,2.94,0l11.28,5.93a1.43,1.43,0,0,0,.81.16A121,121,0,0,0,134,104.33a1.41,1.41,0,0,0,1-1.59l-4-23.28a2.31,2.31,0,0,1,.67-2.06Z" transform="translate(-1.96 -0.98)"/></g><path class="e" d="M184.5,34.37A2.43,2.43,0,0,0,183,32.73a4.27,4.27,0,0,0-2.59-.15l-.24.06c0-1.95-1.22-3.54-2.7-3.54s-2.68,1.59-2.69,3.54l-.24-.06c-1.92-.46-3.76.35-4.1,1.79a2.38,2.38,0,0,0,.61,2.15,4.3,4.3,0,0,0,2.14,1.28,4.08,4.08,0,0,0-.32.58,4.19,4.19,0,0,0-.37,2.57,2.4,2.4,0,0,0,1.3,1.81,2.18,2.18,0,0,0,.9.2,3.5,3.5,0,0,0,2.79-1.8c.91,1.45,2.47,2.16,3.69,1.6a2.44,2.44,0,0,0,1.3-1.82,4.3,4.3,0,0,0-.37-2.56,5.6,5.6,0,0,0-.33-.59C183.62,37.3,184.84,35.79,184.5,34.37Z" transform="translate(-1.96 -0.98)"/><path class="e" d="M15.81,75.62a.58.58,0,0,1-.5-.4C15,74.1,14.13,70.45,16.8,66s7.86-6.36,9.64-6.91a.57.57,0,0,1,.74.44c.34,1.83,1.07,7.34-1.58,11.75C22.82,75.92,17.28,75.75,15.81,75.62Z" transform="translate(-1.96 -0.98)"/><path class="e" d="M16.57,92.18a.61.61,0,0,1-.5-.4c-.37-1.15-1.26-5,1.56-9.67s8.28-6.67,10.11-7.24a.59.59,0,0,1,.74.45c.36,1.88,1.14,7.68-1.65,12.32C23.91,92.51,18.09,92.32,16.57,92.18Z" transform="translate(-1.96 -0.98)"/><path class="e" d="M16.44,58.26a.59.59,0,0,1-.47-.45,9.91,9.91,0,0,1,2-7.9c2.58-3.61,7.15-5,8.82-5.35a.56.56,0,0,1,.7.5c.18,1.7.38,6.47-2.2,10.08C22.53,59,17.79,58.48,16.44,58.26Z" transform="translate(-1.96 -0.98)"/><path class="e" d="M25.44,34.18a2.39,2.39,0,0,0-1.51-1.64,4.27,4.27,0,0,0-2.59-.16l-.24.07c0-2-1.22-3.54-2.69-3.54s-2.68,1.58-2.7,3.53l-.24-.06a4.27,4.27,0,0,0-2.59.16,2.41,2.41,0,0,0-1.51,1.64c-.34,1.41.88,2.92,2.73,3.42a5.45,5.45,0,0,0-.33.58,4.34,4.34,0,0,0-.37,2.57,2.41,2.41,0,0,0,1.31,1.81c1.21.57,2.78-.14,3.68-1.6a3.5,3.5,0,0,0,2.8,1.8,2.13,2.13,0,0,0,.89-.19,2.42,2.42,0,0,0,1.3-1.82,4.66,4.66,0,0,0-.69-3.15,4.17,4.17,0,0,0,2.14-1.27A2.39,2.39,0,0,0,25.44,34.18Z" transform="translate(-1.96 -0.98)"/><path class="e" d="M85.45,8.91l2.06-4.17a.58.58,0,0,0-.62-.83A64.18,64.18,0,0,0,41.1,37.48a.58.58,0,0,0,.6.84l4.59-.67a.57.57,0,0,0,.42-.28A59.38,59.38,0,0,1,85.06,9.22.58.58,0,0,0,85.45,8.91Z" transform="translate(-1.96 -0.98)"/><path class="e" d="M149.56,37.62l4.59.67a.58.58,0,0,0,.6-.84A64,64,0,0,0,109.19,4a.58.58,0,0,0-.62.83L110.63,9a.57.57,0,0,0,.39.3,59.41,59.41,0,0,1,38.12,28.08A.57.57,0,0,0,149.56,37.62Z" transform="translate(-1.96 -0.98)"/><path class="e" d="M140.41,93.79a.58.58,0,0,0,1.06.21,51.23,51.23,0,0,0,7.46-22,.58.58,0,0,0-1-.47l-9.51,9.27a.6.6,0,0,0-.17.52Z" transform="translate(-1.96 -0.98)"/><path class="e" d="M117.88,19.79l-1-.4a.59.59,0,0,0-.74.8l6.56,13.28a.57.57,0,0,0,.43.32l14.18,2.05a.57.57,0,0,0,.53-.93,49.88,49.88,0,0,0-3.71-4.14A51.07,51.07,0,0,0,117.88,19.79Z" transform="translate(-1.96 -0.98)"/><path class="e" d="M79.94,20.08a.58.58,0,0,0-.75-.79l-1.2.5a51.18,51.18,0,0,0-16.28,11A52.53,52.53,0,0,0,58,34.94a.58.58,0,0,0,.54.94l14.38-2.09a.59.59,0,0,0,.44-.32Z" transform="translate(-1.96 -0.98)"/><path class="e" d="M38.75,67q0-2.11.15-4.2a.6.6,0,0,0-.17-.46L35.34,59a.58.58,0,0,0-1,.35,64.32,64.32,0,0,0,4.58,32.53c.37.87.75,1.72,1.15,2.56a69.91,69.91,0,0,0,6.24,3.6.58.58,0,0,0,.76-.81A58.89,58.89,0,0,1,38.75,67Z" transform="translate(-1.96 -0.98)"/><path class="e" d="M156.93,91.91a64.36,64.36,0,0,0,4.6-32.37.58.58,0,0,0-1-.34l-3.39,3.31A.57.57,0,0,0,157,63c.09,1.33.14,2.68.14,4a58.89,58.89,0,0,1-8.34,30.27.58.58,0,0,0,.76.81,69.91,69.91,0,0,0,6.24-3.6C156.18,93.63,156.56,92.78,156.93,91.91Z" transform="translate(-1.96 -0.98)"/><path class="e" d="M47.91,71.29a.58.58,0,0,0-1,.47,50.49,50.49,0,0,0,3.81,15.17,51.13,51.13,0,0,0,3.8,7.31A.59.59,0,0,0,55.61,94L57.8,81.28a.6.6,0,0,0-.17-.52Z" transform="translate(-1.96 -0.98)"/><path class="e" d="M14.55,58.14a11,11,0,0,1,1-7,.58.58,0,0,0-.09-.65l-.18-.18c-3.09-3.18-7.82-3.83-9.52-4a.57.57,0,0,0-.62.6c.08,1.71.6,6.45,3.69,9.63A7.68,7.68,0,0,0,14,58.84.57.57,0,0,0,14.55,58.14Z" transform="translate(-1.96 -0.98)"/><path class="e" d="M14.38,67.63a.58.58,0,0,0-.14-.62l-.42-.39C10,63.22,4.39,63,2.54,63a.57.57,0,0,0-.57.65c.22,1.84,1.21,7.31,5.08,10.71a8.73,8.73,0,0,0,6.37,2.12.57.57,0,0,0,.52-.75A12.16,12.16,0,0,1,14.38,67.63Z" transform="translate(-1.96 -0.98)"/><path class="e" d="M15.15,83.86a.57.57,0,0,0-.14-.63c-.16-.16-.33-.31-.51-.47-4.07-3.57-9.92-3.83-11.83-3.82a.58.58,0,0,0-.57.65c.23,1.9,1.25,7.67,5.32,11.24a9.18,9.18,0,0,0,6.78,2.22.58.58,0,0,0,.51-.77A12.65,12.65,0,0,1,15.15,83.86Z" transform="translate(-1.96 -0.98)"/><path class="e" d="M26.08,106.83a.56.56,0,0,1-.59-.22c-.71-1-2.73-4.36-1.48-9.68S29.86,88,31.43,87a.58.58,0,0,1,.84.19c.92,1.68,3.44,7,2.2,12.24C33.17,104.91,27.57,106.51,26.08,106.83Z" transform="translate(-1.96 -0.98)"/><path class="e" d="M22.24,99.47a.59.59,0,0,0-.33-.56l-.63-.29c-5-2.16-10.62-.62-12.43,0a.58.58,0,0,0-.35.79c.8,1.74,3.54,6.92,8.5,9.08a9.16,9.16,0,0,0,7.13,0,.58.58,0,0,0,.26-.89A12.58,12.58,0,0,1,22.24,99.47Z" transform="translate(-1.96 -0.98)"/><path class="e" d="M180.06,75.81a.58.58,0,0,0,.5-.4c.36-1.12,1.18-4.77-1.49-9.22s-7.86-6.35-9.63-6.91a.59.59,0,0,0-.75.45c-.34,1.83-1.07,7.34,1.58,11.75C173.06,76.11,178.59,76,180.06,75.81Z" transform="translate(-1.96 -0.98)"/><path class="e" d="M179.3,92.37a.58.58,0,0,0,.5-.4c.37-1.15,1.26-5-1.56-9.66s-8.28-6.68-10.11-7.24a.57.57,0,0,0-.74.44c-.36,1.88-1.14,7.69,1.65,12.33C172,92.71,177.79,92.51,179.3,92.37Z" transform="translate(-1.96 -0.98)"/><path class="e" d="M179.43,58.45a.55.55,0,0,0,.47-.44,9.9,9.9,0,0,0-2-7.9c-2.58-3.62-7.15-5-8.81-5.36a.58.58,0,0,0-.71.51c-.18,1.7-.38,6.46,2.2,10.07C173.34,59.14,178.08,58.68,179.43,58.45Z" transform="translate(-1.96 -0.98)"/><path class="e" d="M181.32,58.33a11,11,0,0,0-1-7,.57.57,0,0,1,.09-.65l.18-.18c3.09-3.19,7.82-3.84,9.52-4a.58.58,0,0,1,.62.61c-.08,1.71-.6,6.45-3.69,9.63A7.71,7.71,0,0,1,181.93,59,.58.58,0,0,1,181.32,58.33Z" transform="translate(-1.96 -0.98)"/><path class="e" d="M181.49,67.83a.59.59,0,0,1,.14-.63l.43-.39c3.86-3.39,9.42-3.66,11.28-3.65a.59.59,0,0,1,.57.65c-.23,1.85-1.21,7.32-5.08,10.72a8.8,8.8,0,0,1-6.37,2.12.58.58,0,0,1-.53-.76A12.13,12.13,0,0,0,181.49,67.83Z" transform="translate(-1.96 -0.98)"/><path class="e" d="M180.72,84.06a.57.57,0,0,1,.14-.63c.16-.16.33-.32.51-.47,4.07-3.58,9.92-3.84,11.83-3.82a.57.57,0,0,1,.57.65c-.23,1.9-1.25,7.66-5.32,11.24a9.17,9.17,0,0,1-6.78,2.21.58.58,0,0,1-.51-.76A12.65,12.65,0,0,0,180.72,84.06Z" transform="translate(-1.96 -0.98)"/><path class="e" d="M169.79,106.93a.6.6,0,0,0,.6-.22c.7-1,2.72-4.36,1.47-9.68s-5.85-8.89-7.42-10a.59.59,0,0,0-.84.2c-.91,1.68-3.43,7-2.2,12.24C162.7,105,168.31,106.6,169.79,106.93Z" transform="translate(-1.96 -0.98)"/><path class="e" d="M173.63,99.57A.59.59,0,0,1,174,99c.2-.1.41-.2.63-.29,5-2.16,10.62-.62,12.43,0a.58.58,0,0,1,.35.79c-.8,1.74-3.53,6.92-8.5,9.08a9.16,9.16,0,0,1-7.13,0,.58.58,0,0,1-.26-.89A12.58,12.58,0,0,0,173.63,99.57Z" transform="translate(-1.96 -0.98)"/><path class="e" d="M82,62.36a.33.33,0,0,1-.08-.51l.35-.37A.29.29,0,0,0,82.1,61H79.31a.57.57,0,0,0-.57.51c-.14,1.15-.27,2.2-.41,3.24a.59.59,0,0,0,.58.66h7.28a.29.29,0,0,0,.16-.54C85.05,64.05,83.43,63.13,82,62.36Z" transform="translate(-1.96 -0.98)"/><path class="e" d="M91.62,61H85.84a.29.29,0,0,0-.13.55c1.25.65,2.46,1.33,3.36,1.89a.33.33,0,0,1,.09.48l-.81,1a.29.29,0,0,0,.23.47h2.63a.59.59,0,0,0,.58-.5c.13-.91.27-2,.4-3.27A.58.58,0,0,0,91.62,61Z" transform="translate(-1.96 -0.98)"/><path class="e" d="M79.7,58.36h7.21a.29.29,0,0,0,.15-.54,42.76,42.76,0,0,0-4-2.16.33.33,0,0,1-.12-.5l.34-.43a.29.29,0,0,0-.22-.47h-3a.58.58,0,0,0-.58.51l-.35,2.94A.58.58,0,0,0,79.7,58.36Z" transform="translate(-1.96 -0.98)"/><path class="e" d="M92.24,54.26H86.86a.29.29,0,0,0-.13.55c1.1.53,2.14,1.06,3,1.52a.33.33,0,0,1,.09.49L89,57.89a.29.29,0,0,0,.23.47H92a.59.59,0,0,0,.58-.54c.05-.91.13-1.9.22-2.93A.58.58,0,0,0,92.24,54.26Z" transform="translate(-1.96 -0.98)"/><path class="e" d="M115.23,51.45h-7a.58.58,0,0,0-.52.84,35,35,0,0,0,3.56,6,.58.58,0,0,0,.88,0,20.77,20.77,0,0,0,3.61-6A.58.58,0,0,0,115.23,51.45Z" transform="translate(-1.96 -0.98)"/></svg>