<svg xmlns="http://www.w3.org/2000/svg" version="1.1" xmlns:xlink="http://www.w3.org/1999/xlink" xmlns:svgjs="http://svgjs.com/svgjs" width="964.04" height="839.93"><svg xmlns="http://www.w3.org/2000/svg" viewBox="0 0 964.04 839.93"><defs><style>.a{fill:#1d1d1b;}</style></defs><polygon class="a" points="701.36 251.41 720.55 68.84 537.98 68.84 701.36 251.41"></polygon><polygon class="a" points="482.75 594.33 665.32 594.33 684.51 411.76 482.75 594.33"></polygon><polygon class="a" points="238.73 68.84 56.16 68.84 36.97 251.41 238.73 68.84"></polygon><polygon class="a" points="20.12 411.76 0.93 594.33 183.5 594.33 20.12 411.76"></polygon><polygon class="a" points="339.8 123.66 387.09 80.87 425.39 123.66 506.26 123.66 395.59 0 258.93 123.66 339.8 123.66"></polygon><polygon class="a" points="538.73 470.57 692.32 331.59 567.95 192.6 559.45 273.47 611.46 331.59 547.23 389.7 538.73 470.57"></polygon><polygon class="a" points="381.68 539.51 334.39 582.3 296.09 539.51 215.22 539.51 325.89 663.17 462.55 539.51 381.68 539.51"></polygon><polygon class="a" points="162.03 389.7 110.02 331.59 174.25 273.47 182.75 192.6 29.15 331.59 153.53 470.57 162.03 389.7"></polygon><path class="a" d="M556.7,296.2H446.49l3.4-32.31H390.82l-3.39,32.31H277.18L271.11,354l78.74,62H264.6L259,469.31H538.51L544.12,416H460.66l90-62ZM458.63,354l-40.77,26.14H397.55L362.88,354l1.32-12.52h95.74Z" transform="translate(-41.54 -104.08)"></path><polygon class="a" points="256.35 503.36 262.55 444.33 428.78 503.36 482.45 503.36 494.2 391.48 440.54 391.48 434.99 444.33 268.11 391.48 214.68 391.48 202.92 503.36 256.35 503.36"></polygon><polygon class="a" points="808.56 594.33 722.31 594.33 777.54 68.84 863.79 68.84 808.56 594.33"></polygon><polygon class="a" points="908.81 594.33 865.85 594.33 921.08 68.84 964.04 68.84 908.81 594.33"></polygon><path class="a" d="M92.9,875.55h0c-13.77-3.63-22.07-6.46-21.15-15.15.79-7.5,9.07-12.94,19.69-12.94,9.94,0,18.35,4.95,22.5,13.28a5.66,5.66,0,0,0,4.7,3.13,4.31,4.31,0,0,0,4.17-4.08c.63-6.08,1.34-7.72,2.33-9.49a5.45,5.45,0,0,0-1.35-6.7c-4.4-4.89-17.08-10.17-29.87-10.17-20.53,0-42.23,9.37-44.43,30.31-1.73,16.45,7.61,27,29.37,33.12,22.74,6.35,24.71,13.3,24.22,18-.89,8.49-10.31,14.42-22.91,14.42-9.19,0-21-4-26.6-15A5.1,5.1,0,0,0,49,911a4.3,4.3,0,0,0-4.28,4.09c-.63,6-1.58,8.69-2.25,9.88a5.7,5.7,0,0,0-.88,2.37A4.63,4.63,0,0,0,42.89,931c6,6.39,20.87,13,35.32,13,27.33,0,45.69-13.12,47.91-34.23C127.85,893.35,116.67,881.83,92.9,875.55Z" transform="translate(-41.54 -104.08)"></path><path class="a" d="M191.21,833.55c-31.5,0-55.87,22.59-59.28,54.94-1.69,16.06,2.39,30.48,11.48,40.57,8.74,9.7,21.45,14.83,36.79,14.83,31.57,0,56-22.54,59.38-54.81,1.69-16.07-2.41-30.51-11.54-40.65C219.28,838.7,206.55,833.55,191.21,833.55Zm22.66,53.22C211.8,906.49,204.34,930,180.58,930c-7.34,0-13-2.17-16.85-6.43-5.74-6.38-7.81-17.53-6.17-33.14,2.07-19.72,9.5-43.21,33.16-43.21,7.4,0,13.11,2.17,17,6.47C213.43,860.05,215.51,871.19,213.87,886.77Z" transform="translate(-41.54 -104.08)"></path><path class="a" d="M433.85,936.37c-12.8-36.08-28.46-88.58-31.51-98.83l-.19-.45c-.69-1.62-2-2.42-4-2.42H398l-2.1.41a29.74,29.74,0,0,1-7.18.93,4,4,0,0,0-3.84,2.46c-13.47,29.07-34.66,70.78-49.74,94.56-6.6-6.64-18.2-23.62-26-35l-.37-.55c-1.07-1.57-2.08-3-3-4.37,21.79-5.24,27.71-18.62,28.8-29,.77-7.33-1.08-13.72-5.37-18.48-5.88-6.53-15.91-9.84-29.81-9.84-7,0-15.49.16-21.13.27h-.87c-2.51.05-4.4.08-5.25.08-5.31,0-12.13-.16-14.82-.23h-.24a4.42,4.42,0,0,0-4.38,3.88c-.27,3.07-.47,6-.66,9.14l-.05.77c-.29,4.68-.59,9.51-1.21,15.29l-4.47,42.52c-1.06,10.19-2.12,17.64-3.35,26.27l-.55,3.87a4.29,4.29,0,0,0,1,3.48,3.62,3.62,0,0,0,2.78,1.19h0l.78,0a61.28,61.28,0,0,1,15.05-.1h.45c1.65,0,3.71-1,4-4,.21-2.71.4-5.32.59-7.94l.09-1.36c.46-6.34.92-12.9,1.76-20.89l1.38-13.15c2.39.15,5.86.36,8.23.44.35,0,1.2,0,2,.06l.68,0c8.62,13.73,21.29,35.07,27,45.2a4.37,4.37,0,0,0,3.92,2.39,6.37,6.37,0,0,0,2.3-.54,4,4,0,0,1,.84-.25,36.64,36.64,0,0,1,6.55-.44c3,0,6.06.16,9.75.49h.73a8.4,8.4,0,0,0,2.74-.41,3.63,3.63,0,0,0,1.65.28l.49,0a21.09,21.09,0,0,1,4-.31,29.44,29.44,0,0,1,5.54.45l.66,0c.94,0,2.68-.36,3.91-2.79,4-9.36,6.39-14.37,11.91-25.27h37.53c2.49,8.29,3.24,11.68,4.6,17.73.44,2,1,4.26,1.57,6.85.29,2,1.93,3.38,4.35,3.46,4.45-.6,10.28-.63,18.4-.1a4.37,4.37,0,0,0,4.4-4,3.79,3.79,0,0,0,0-.89l0-.22Zm-37.24-36.53H370.73l16.4-32.94Zm-86-37.69C309.27,874.64,299.34,881,281.08,881h-2c-2.61-.07-5.51-.26-7.24-.39L275,850.06c4.7-.16,12.53-.4,17.64-.4,8.05,0,13.43,1.44,16,4.28C310.34,855.8,311,858.49,310.59,862.15Z" transform="translate(-41.54 -104.08)"></path><path class="a" d="M522.43,835.27h-.76c-4.82.47-22,.84-30.59.84h-21.6l-16.58-.61a4.46,4.46,0,0,0-4.4,4c-.17,2.29-.32,4.81-.47,7.52l0,.45c-.34,6.1-.73,13-1.51,20.37l-4.17,39.71c-.7,6.69-1.68,13.14-2.54,18.84l.91.14-.95.11c-.6,4-1.17,7.7-1.57,11.06a4,4,0,0,0,1,3.08,4.16,4.16,0,0,0,3.17,1.33l17.5-.49h23.37l31.62.49a4.23,4.23,0,0,0,4.26-3.87l0-.54a37.17,37.17,0,0,1,.07-4c.09-.84.3-1.84.73-3.84l.13-.82a3.83,3.83,0,0,0-.87-3c-.63-.69-1.67-1.42-4.05-1-4.61.9-25.52,1.54-31.14,1.54H463.94l3.51-33.4h15.14c5.77,0,24.12.36,29.11.61,3,0,4.3-1.93,4.48-3.62l.05-.85a17.09,17.09,0,0,1,0-3.29,13.2,13.2,0,0,1,.62-3l.15-.85a3.72,3.72,0,0,0-.95-2.91,4.48,4.48,0,0,0-3.42-1.39h0c-4.91.25-22.32.61-29.11.61H469l2.9-27.51h20.66c6,0,20.8.08,28.27.85h.57a3.85,3.85,0,0,0,4-3.43,2.68,2.68,0,0,0,0-.95l0-.23a15.46,15.46,0,0,1-.2-3.28,23.23,23.23,0,0,1,.95-3.76l.17-1a3.65,3.65,0,0,0-.86-2.88A3.77,3.77,0,0,0,522.43,835.27Z" transform="translate(-41.54 -104.08)"></path><path class="a" d="M663.8,921.13a3.28,3.28,0,0,0-2.51.77,9.82,9.82,0,0,1-6.18,2.45c-4,0-7.57-2.91-10.7-5.84a268.21,268.21,0,0,0,18.91-25.9l.23-.36.38-1.33c.1-1-.16-2.52-2.07-4.28-1.33-.95-2.9-3.19-4.62-6.5a3.76,3.76,0,0,0-3.54-3c-1.06,0-3,.54-4.34,4.16-2.36,6.41-8.74,19.56-14.48,27.47-4-4.86-9.37-12.88-16-23.9,15.19-8.84,22.81-18.09,24-29,.62-5.9-.9-11.07-4.39-14.94-4.13-4.59-10.9-7.12-19.06-7.12-23.71,0-31.76,17.1-32.71,26.14-.73,6.92,1.24,13.91,6.58,23.24-15.1,7.71-25.23,20-26.52,32.27-.38,3.63-.57,12.82,5.81,19.91,5,5.57,12.84,8.4,23.24,8.4a61.13,61.13,0,0,0,32-9.76c3.64,3.71,10.59,9.27,19.43,9.27,12.31,0,22.61-11.56,22.92-14.62a7.1,7.1,0,0,0-2-5.31A6.51,6.51,0,0,0,663.8,921.13Zm-44.9,2.22A31.74,31.74,0,0,1,603.12,928c-4.51,0-7.92-1.24-10.12-3.68-3.77-4.18-3.28-10.82-3.15-12.11.24-2.32,1.72-10.19,10.59-16.25A218.78,218.78,0,0,0,618.9,923.35Zm5.94-67.21c-.7,6.67-4.54,12-12.4,17.29-2.39-4.71-4.82-11.29-4.37-15.6v-.07c.23-2,1.77-11.41,10.59-11.41,2.18,0,3.73.53,4.71,1.63C624.76,849.51,625.25,852.26,624.84,856.14Z" transform="translate(-41.54 -104.08)"></path><path class="a" d="M780,833.67c-27.8,0-58,19.08-61.79,55.55-1.75,16.61,2,30.55,10.78,40.32,8.45,9.39,21,14.35,36.34,14.35,22.14,0,42-8.39,42.72-15.29a5.06,5.06,0,0,0-.14-1.93,11.27,11.27,0,0,1-.09-4c.07-.66.17-1.29.26-1.89s.19-1.22.28-2a4.9,4.9,0,0,0-1-4,3.69,3.69,0,0,0-2.77-1.2,5.67,5.67,0,0,0-4.12,2c-5.27,4.94-16.45,13.22-32,13.22-7.34,0-13.19-2.37-17.39-7-6-6.6-8.45-17.54-7-30.82,3-28.35,15-43.33,34.66-43.33,11.76,0,19.13,6.27,22.12,12.18,1.11,2,2.77,3.13,4.46,3.13a4.24,4.24,0,0,0,4.16-4.08c.59-5.6,2-8.12,3-9.8l.28-.52a6.23,6.23,0,0,0,.57-1.82,4.88,4.88,0,0,0-1.57-3.76C807.78,838.65,797.18,833.67,780,833.67Z" transform="translate(-41.54 -104.08)"></path><path class="a" d="M873.85,833.55c-31.5,0-55.87,22.59-59.27,54.94-1.69,16.06,2.38,30.48,11.48,40.57,8.73,9.7,21.45,14.83,36.78,14.83,31.58,0,56-22.54,59.39-54.81,1.69-16.07-2.41-30.51-11.54-40.65C901.93,838.7,889.19,833.55,873.85,833.55Zm22.67,53.22C894.45,906.49,887,930,863.23,930c-7.34,0-13-2.17-16.85-6.43-5.74-6.38-7.82-17.53-6.18-33.14,2.08-19.72,9.51-43.21,33.17-43.21,7.4,0,13.11,2.17,17,6.47C896.08,860.05,898.16,871.19,896.52,886.77Z" transform="translate(-41.54 -104.08)"></path><path class="a" d="M948.9,919a12.84,12.84,0,0,0-9.7-4.2,15.76,15.76,0,0,0-15.35,13.76,12.86,12.86,0,0,0,3.18,10.1,13,13,0,0,0,9.81,4.26,15.5,15.5,0,0,0,15.23-13.77A12.91,12.91,0,0,0,948.9,919Z" transform="translate(-41.54 -104.08)"></path></svg><style>@media (prefers-color-scheme: light) { :root { filter: none; } }
@media (prefers-color-scheme: dark) { :root { filter: invert(100%); } }
</style></svg>