<?xml version="1.0" encoding="utf-8"?>
<!-- Generator: Adobe Illustrator 25.4.1, SVG Export Plug-In . SVG Version: 6.00 Build 0)  -->
<svg version="1.1" id="Layer_1" xmlns="http://www.w3.org/2000/svg" xmlns:xlink="http://www.w3.org/1999/xlink" x="0px" y="0px"
	 viewBox="0 0 379 40.5" style="enable-background:new 0 0 379 40.5;" xml:space="preserve">
<path d="M21.5,29c-0.5,0-4.9-0.2-6.7-0.2h-0.1v4.6c3-0.3,5.9-0.8,8.6-1.3c0.2,0,0.6,1.1,0.6,1.7c0,0.2,0,0.3-0.1,0.4
	C16.6,36.4,9.4,38.1,2,39.1c-0.3,0-0.4-0.2-0.5-0.6c-0.2-1.3-0.7-2.5-1.4-3.7c0-0.1-0.1-0.2-0.1-0.3c0-0.2,0.1-0.3,0.3-0.3
	c0,0,0,0,0.1,0h1.4c2.5,0,5.1-0.1,7.8-0.3v-5.1H9.1c-1.4,0-5.8,0.1-6.3,0.2H2.6c-0.3,0-0.3-0.1-0.3-0.3s0.1-0.3,0.1-0.5
	c0-0.2,0-0.4,0-0.6c0-0.2,0-0.4,0-0.6c0-0.2-0.1-0.5-0.1-0.7c0-0.1,0.1-0.3,0.2-0.3c0,0,0,0,0,0c0.1,0,0.2,0,0.3,0
	c0.5,0.1,4.9,0.3,6.3,0.3h0.5v-4.6H8.9c-1.8,0-6.4,0.1-6.9,0.2H1.8c-0.3,0-0.3-0.1-0.3-0.3s0.1-0.3,0.1-0.5c0-0.2,0-0.3,0-0.5
	c0-0.2,0-0.4,0-0.6c0-0.2-0.1-0.5-0.1-0.7s0.1-0.2,0.3-0.2c0.1,0,0.2,0,0.3,0c0.3,0.1,2.5,0.2,4.4,0.3c-0.2-1.9-0.7-3.8-1.6-5.6l0,0
	c0-0.2,0.9-0.8,1.4-0.8s5,3.7,5,4.5c0,0.2-0.1,0.3-0.4,0.4c-1.1,0.3-2.1,0.8-3.1,1.5h5.4c0.9-2,1.4-4.2,1.5-6.4v-0.1H8.2
	c-1.8,0-6.9,0.1-7.4,0.2H0.6c-0.2,0-0.3-0.1-0.3-0.2s0.1-0.4,0.1-0.5c0-0.2,0-0.3,0-0.5c0-0.2,0-0.4,0-0.6c0-0.2-0.1-0.5-0.1-0.7
	s0-0.2,0.2-0.2c0.1,0,0.2,0,0.3,0c0.4,0.1,4.1,0.2,6.3,0.3V5.2c0-1.2,0-2.8-0.1-3.8V1.1c0-0.3,0.1-0.4,0.6-0.4h0.7
	c0.9,0,1.8-0.1,2.6-0.3c0.1,0,0.2,0,0.3,0c0.2,0,0.3,0.1,0.3,0.3c0,0.2,0,0.3,0,0.5c-0.1,1.3-0.2,2.7-0.1,4v5.5h1.9V4.9
	c0-1.1,0-2.8-0.1-3.8V0.8c0-0.2,0.1-0.3,0.5-0.3h0.6c0.9,0,1.7-0.1,2.6-0.3c0.1,0,0.3,0,0.4,0c0.2,0,0.3,0.1,0.3,0.3
	c0,0.1,0,0.3-0.1,0.4c-0.1,1.1-0.1,2.6-0.1,4v5.7c2.3-0.1,5.1-0.2,5.3-0.3h0.1c0.2,0,0.3,0.1,0.3,0.3c0,0.2-0.1,0.4-0.1,0.5
	c0,0.2,0,0.4,0,0.6c0,0.2,0,0.4,0,0.6c0.1,0.1,0.1,0.3,0.1,0.5c0,0.2-0.1,0.3-0.3,0.3l0,0c-0.4,0-5.2-0.2-7.3-0.2l0.1,0.1
	c1.2,0.6,2.5,1,3.9,1.2c0.4,0.1,0.4,0.2,0.4,0.4c0,0.6-2.1,3.1-4.7,4.8c2.2,0,6.7-0.3,7-0.3h0.1c0.2,0,0.2,0.1,0.2,0.3
	c0,0.2,0,0.3-0.1,0.5c0,0.2-0.1,0.4,0,0.6c0,0.2,0,0.4,0,0.6c0,0.2,0.1,0.3,0.1,0.5c0,0.2-0.1,0.3-0.3,0.3l0,0
	c-0.5,0-5.7-0.2-7.6-0.2v4.6h0.1c1.8,0,6.4-0.3,6.8-0.3h0.1c0.2,0,0.2,0.1,0.2,0.3c0,0.2,0,0.3-0.1,0.5c0,0.2,0,0.5,0,0.7
	c0,0.2,0,0.3,0,0.5c0.1,0.2,0.1,0.3,0.1,0.5C21.9,28.8,21.8,29,21.5,29L21.5,29z M0.6,2.9C1,2.4,1.5,2,2.1,1.9C2.5,1.9,7,6.2,7,7.2
	c0,0.1-0.1,0.3-0.3,0.3C5.6,8,4.5,8.8,3.6,9.7c-0.2,0.2-0.4,0.4-0.6,0.4S2.8,9.8,2.7,9.4C2.4,7.2,1.7,5,0.6,2.9L0.6,2.9z M17.5,9.1
	c1-2.2,1.6-4.6,1.9-7c0-0.3,0.1-0.5,0.3-0.5c0.2,0,0.4,0.1,0.5,0.2c1.2,0.5,2.4,0.8,3.7,1c0.4,0,0.5,0.2,0.5,0.4
	c0,1.1-4.8,6.9-5.4,6.9C18.7,10,17.5,9.3,17.5,9.1L17.5,9.1z M36.5,35.7c0,3.7-2.7,4.5-4.8,4.5c-2.6-0.1-5.2-0.7-7.5-1.9
	c-0.1-0.1-0.2-0.3-0.2-0.5c0-0.7,0.5-1.9,0.9-1.9l0,0c1.3,0.4,2.6,0.6,4,0.7c2,0,2.3-0.9,2.3-2.3v-23h-1.6c-2,0-3.9,0-5.9,0.2
	c-0.1,0-0.2,0-0.3,0c-0.2,0-0.3-0.1-0.3-0.3c0-0.2,0.1-0.4,0.1-0.6c0-0.2,0.1-0.4,0-0.6c0-0.2,0-0.5,0-0.7c-0.1-0.2-0.1-0.5-0.1-0.7
	c0-0.2,0.1-0.3,0.3-0.3h0.2c0.6,0.1,3.5,0.3,5.9,0.3h1.8V8c0-5.2,0-5.9,0-6.7V1.2c0-0.4,0.1-0.5,0.9-0.5h0.2c1.1,0,2.1-0.1,3.2-0.3
	c0.2,0,0.4-0.1,0.6-0.1c0.2,0,0.3,0.1,0.3,0.4v0.1c-0.1,1.8-0.1,5.9-0.1,7.3v0.6c1.8-0.1,3.3-0.3,3.6-0.3h0.1c0.1,0,0.3,0.1,0.3,0.2
	c0,0,0,0,0,0.1c0,0.2-0.1,0.4-0.1,0.6c-0.1,0.3-0.1,0.5-0.1,0.8c0,0.2,0,0.4,0.1,0.6c0.1,0.2,0.1,0.4,0.2,0.6c0,0.2-0.1,0.3-0.3,0.3
	H40c-0.3,0-1.9-0.1-3.5-0.2v17.2c0,1.6,0,4.7,0.1,6.9L36.5,35.7z M23.5,14.2c0-0.3,1.3-0.9,1.8-0.9c0.1,0,0.2,0,0.2,0.1
	c4.5,7.5,5.4,12,5.4,12.2s-0.1,0.5-0.6,0.6c-1.3,0.5-2.6,1.2-3.7,2c-0.2,0.2-0.4,0.3-0.6,0.3c-0.3,0-0.3-0.4-0.3-0.8
	C25.7,23.2,25,18.7,23.5,14.2L23.5,14.2z"/>
<path d="M82,39c-0.5,0-9.6-0.2-12.2-0.2H55.5c-3,0-11.4,0.1-11.9,0.2c-0.1,0-0.2,0-0.3,0c-0.2,0-0.2-0.1-0.2-0.3
	c0-0.2,0-0.3,0.1-0.5c0.1-0.3,0.1-0.5,0.1-0.8c0-0.3,0-0.5-0.1-0.8c-0.1-0.2-0.1-0.5-0.2-0.7c0-0.1,0-0.3,0.3-0.3c0.1,0,0.2,0,0.3,0
	c0.5,0.1,8.9,0.3,11.9,0.3h3.9v-7.8h-3c-2.1,0-9.1,0.1-9.6,0.2h-0.2c-0.3,0-0.4-0.1-0.4-0.3c0-0.2,0.1-0.3,0.1-0.5
	c0-0.2,0.1-0.5,0.1-0.7c0-0.2,0-0.5-0.1-0.7c-0.1-0.2-0.1-0.5-0.2-0.7c0-0.2,0.1-0.3,0.3-0.3c0.1,0,0.2,0,0.3,0
	c0.5,0.1,7.6,0.3,9.6,0.3h12.7c1.9,0,9.4-0.3,9.8-0.3l0,0c0.3,0,0.3,0.1,0.3,0.2c0,0.2-0.1,0.4-0.2,0.6c0,0.2-0.1,0.5-0.1,0.7
	c0,0.3,0,0.5,0.1,0.8c0.1,0.2,0.1,0.3,0.1,0.5c0,0.2-0.1,0.3-0.3,0.3l0,0c-0.5,0-7.6-0.2-9.7-0.2h-3.6V36h4.3c2.6,0,12-0.3,12.2-0.3
	h0.1c0.2,0,0.3,0.1,0.3,0.3c0,0.2-0.1,0.4-0.2,0.6c0,0.2-0.1,0.5-0.1,0.7c0,0.3,0,0.5,0.1,0.8c0.1,0.2,0.1,0.3,0.1,0.5
	C82.4,38.8,82.3,38.9,82,39L82,39z M44.7,23.5c-0.6,0-1-0.9-1-1.6c0-0.2,0.1-0.4,0.3-0.5c8.1-2,10.9-5.3,11.4-11.8
	c0-0.3,0.1-0.6,0.3-0.6c0.1,0,0.3,0.1,0.4,0.1c1.4,0.4,2.9,0.7,4.4,0.6c0.5,0,0.6,0.1,0.6,0.3c0,0.2-0.1,0.4-0.2,0.6
	C59,18.8,55.9,22.2,44.7,23.5L44.7,23.5z M81.1,9c-0.1,1,0,2.1,0.1,3.1c0,0.1,0,0.3,0,0.4c0,0.3-0.1,0.4-0.3,0.4s-0.4-0.1-0.7-0.1
	c-0.6-0.1-1.3-0.1-1.9-0.1c-0.7,0-1.3,0-2,0.2c-0.1,0-0.3,0-0.4,0c-0.3,0-0.4-0.1-0.4-0.4c0-0.2,0-0.3,0-0.5
	c0.1-0.7,0.1-2.1,0.1-2.8V7.5H49.8v2.4c0,1,0,2.4,0,3.3c0,0.2,0,0.3,0,0.5s0,0.2-0.3,0.2c-0.1,0-0.2,0-0.3,0
	c-0.8-0.2-1.6-0.2-2.4-0.2c-0.6,0-1.3,0-1.9,0.2c-0.2,0-0.3,0.1-0.5,0.1c-0.3,0-0.3-0.1-0.3-0.3s0-0.3,0-0.4
	c0.1-0.8,0.1-2.4,0.1-3.2V7.8c0-0.7,0-2.1,0-2.4V5.1c0-0.2,0.1-0.4,0.5-0.4H45c0.6,0.1,1.5,0.1,7.8,0.1h6.7v-1c0-0.9,0-1.8-0.1-2.7
	c0-0.1,0-0.2,0-0.3c0-0.3,0.1-0.4,0.6-0.4H61c1.4,0,2.8-0.1,4.2-0.3c0.1,0,0.2,0,0.3,0c0.2,0,0.3,0.1,0.3,0.3c0,0,0,0.1,0,0.1
	c0,0.2,0,0.3,0,0.5c-0.1,1-0.2,1.9-0.2,2.9v0.9h7.1c2.6,0.1,5.1-0.1,7.7-0.5c0.1,0,0.3,0,0.4,0c0.2,0,0.4,0.1,0.4,0.5
	c0,0.1,0,0.3,0,0.4c0,0.6-0.1,1.5-0.1,2.3L81.1,9z M69.1,16c0,1.6,0.3,1.9,3.6,1.9c4,0,4.8-0.5,5.3-4c0-0.2,0.3-0.2,0.7-0.2
	c0.8,0,1.8,0.2,1.8,0.5c-0.6,7-1.4,7.9-8.9,7.9c-6.7,0-7.7-1.3-7.7-4.9v-3.6c0-1.3,0-2.4-0.1-3.4V9.9c0-0.3,0.1-0.4,0.5-0.4h0.8
	c1.1,0,2.3-0.1,3.4-0.3c0.1,0,0.2-0.1,0.3-0.1c0.3,0,0.4,0.1,0.4,0.4c0,0.1,0,0.3,0,0.4c-0.1,1.2-0.2,2.3-0.1,3.5L69.1,16z"/>
<path d="M124.9,18.3c-0.5,0-9.6-0.2-12.2-0.2H98c-3,0-11.4,0.1-11.9,0.2c-0.1,0-0.2,0-0.2,0c-0.2,0-0.3-0.1-0.3-0.3
	c0-0.2,0-0.3,0.1-0.5c0.1-0.3,0.1-0.5,0.1-0.8c0-0.2,0-0.5-0.1-0.7c-0.1-0.2-0.1-0.5-0.2-0.7c0-0.1,0.1-0.2,0.3-0.2
	c0.1,0,0.2,0,0.3,0c0.4,0.1,7.7,0.2,11.1,0.3c-0.6-2.2-1.6-4.3-3-6.1c0,0,0-0.1,0-0.1c0-0.4,1.3-1,1.8-1c0.7,0,7.6,3.9,7.6,4.8
	c0,0.2-0.2,0.4-0.5,0.5c-1.5,0.5-2.9,1.2-4.2,2h8.5c1.5-2.2,2.5-4.6,3-7.2c0-0.1,0-0.2,0.1-0.3h-12c-2.1,0-9.1,0.1-9.6,0.2h-0.2
	c-0.3,0-0.4-0.1-0.4-0.3c0-0.2,0.1-0.4,0.1-0.5c0-0.2,0.1-0.5,0.1-0.7c0-0.2,0-0.5-0.1-0.7c-0.1-0.2-0.1-0.5-0.2-0.7
	c0-0.2,0.1-0.3,0.3-0.3c0.1,0,0.2,0,0.2,0c0.5,0.1,7.6,0.3,9.6,0.3h4V4.9c0-0.9,0-2.5-0.1-3.5V1.2c0-0.4,0.1-0.4,0.7-0.4
	c1.7,0,3.3-0.1,5-0.4c0.1,0,0.2,0,0.3,0c0.3,0,0.4,0.2,0.4,0.4s0,0.2,0,0.4c-0.1,1.3-0.2,2.5-0.2,3.8v0.4h4.3c1.9,0,9.4-0.3,9.8-0.3
	h0.1c0.2,0,0.3,0.1,0.3,0.2c0,0.2-0.1,0.4-0.2,0.6c-0.1,0.2-0.1,0.5-0.1,0.7c0,0.3,0,0.5,0.1,0.8c0.1,0.2,0.1,0.3,0.1,0.5
	c0,0.2-0.1,0.3-0.4,0.3l0,0c-0.5,0-7.6-0.2-9.7-0.2h-1.4c0.9,0.8,3.1,1.4,5.2,1.9c0.6,0.1,0.8,0.3,0.8,0.6c0,0.7-3.2,3.1-7,5h2.5
	c2.6,0,11.9-0.3,12.2-0.3H125c0.2,0,0.3,0.1,0.3,0.2c0,0.2-0.1,0.4-0.2,0.6c-0.1,0.2-0.1,0.5-0.1,0.7c0,0.2,0,0.5,0.1,0.7
	c0.1,0.2,0.1,0.3,0.1,0.5C125.3,18.2,125.2,18.4,124.9,18.3L124.9,18.3z M118.5,40.4c-0.8-0.1-1.5-0.1-2.3-0.1c-0.6,0-1.2,0-1.8,0.1
	c-0.1,0-0.3,0-0.4,0c-0.3,0-0.4-0.1-0.4-0.4c0-0.1,0-0.2,0-0.3c0.1-0.7,0.1-1.4,0.1-2.1H97c0,1,0.1,1.9,0.1,2.1V40
	c0,0.3-0.1,0.5-0.4,0.5h-0.2c-0.8-0.1-1.6-0.2-2.4-0.2c-0.5,0-1.1,0-1.6,0.1c-0.2,0-0.3,0-0.5,0c-0.3,0-0.5-0.1-0.5-0.4V40
	c0.1-0.7,0.1-4.6,0.1-6.7V26c0-1.8,0-3.8-0.1-4.5v-0.2c0-0.3,0.1-0.4,0.5-0.4h0.2c1.2,0.1,3,0.1,5,0.1h15.1c1.7,0,4.8,0,6.2-0.2
	c0.1,0,0.2,0,0.3,0c0.3,0,0.3,0.1,0.3,0.5v0.3c0,1.5-0.1,3-0.1,4.2v7.8c0,2.1,0,5.5,0.1,6.1c0,0.1,0,0.2,0,0.3
	c0,0.3-0.1,0.4-0.5,0.4H118.5z M113.7,23.6H97V28h16.6L113.7,23.6z M113.7,30.6H97V35h16.6L113.7,30.6z"/>
<path d="M165.5,35.6c0,3.9-2.7,4.4-5.7,4.4c-2.2,0-4.4-0.4-6.5-1.2c-0.2-0.1-0.2-0.3-0.2-0.5c0-0.8,0.4-1.9,0.8-1.9l0,0
	c1.1,0.3,2.2,0.5,3.3,0.5c2.7,0,3.1-0.8,3.1-2.3V22.7c-1.2,0.1-2.5,0.1-3.8,0.1c-5.6,0-7.4-0.3-7.4-4.3v-3.1h-2.3
	c-0.4,4.6-2.1,7.1-6.4,8.8l0,0c0.6,0,2.4,0.1,4.5,0.1h5.9c1.7,0,3.3,0,4.9-0.2h0.3c0.3,0,0.4,0.2,0.4,0.5v0.3c0,0.9,0,1.6,0,2.3v4
	c0,0.7,0,2.1,0.1,2.6v0.3c0,0.3-0.1,0.5-0.5,0.5h-0.1c-1.1-0.1-2.7-0.1-4.5-0.1H145c-1.5,0-2.9,0-4.2,0h-0.2c-0.5,0-0.7-0.2-0.7-0.5
	V34c0.1-0.5,0.1-2,0.1-2.8v-4c0-0.8,0-1.6-0.1-2.4c0-0.1,0-0.2,0-0.3c-0.8,0.3-1.7,0.6-2.5,0.8c-0.2,0.1-1.1-1.2-1.1-1.7
	c0,0,0-0.1,0-0.1c4.4-2,5.3-3.9,5.6-8H136v17.5c0,1.2,0,5.2,0.1,6.9c0,0.1,0,0.3,0,0.3s-0.1,0.3-0.4,0.3c-0.1,0-0.2,0-0.3,0
	c-0.6-0.1-1.2-0.1-1.8-0.1c-0.7,0-1.4,0-2.1,0.1c-0.1,0-0.3,0-0.4,0c-0.3,0-0.4-0.1-0.4-0.5v-0.1c0.1-1.4,0.2-5.8,0.2-7V17.3
	c0-1,0-2.7-0.1-4c0-0.4,0-0.6,0.5-0.6h0.2c1.5,0.1,4,0.1,5.9,0.1h2.7c-0.6-1.9-1.6-3.6-2.9-5l0,0c0-0.3,1-0.9,1.5-1
	c-4.4,0-9.1,0.2-9.5,0.2h-0.2c-0.3,0-0.3-0.1-0.3-0.3c0-0.2,0.1-0.4,0.1-0.6c0.1-0.2,0.1-0.4,0.1-0.6c0-0.2,0-0.5-0.1-0.7
	c-0.1-0.2-0.1-0.5-0.1-0.7c0-0.2,0-0.3,0.3-0.3c0.1,0,0.2,0,0.2,0c0.5,0.1,7.9,0.3,12.9,0.3h2.9V3.8c0-2.2,0-2.5,0-2.7V0.9
	c0-0.3,0.1-0.5,0.6-0.5h0.9c1.4,0,2.9-0.1,4.3-0.4c0.1,0,0.2,0,0.3,0c0.3,0,0.4,0.1,0.4,0.4c0,0.1,0,0.3-0.1,0.4c-0.1,1-0.2,2-0.2,3
	v0.4h3.8c5.4,0,12.2-0.3,12.6-0.4h0.1c0.2,0,0.3,0.1,0.3,0.2c0,0.2-0.1,0.4-0.1,0.6c0,0.2,0,0.5,0,0.7c0,0.2,0,0.5,0,0.7
	c0.1,0.2,0.1,0.4,0.1,0.6c0,0.2-0.1,0.3-0.3,0.3c0,0-0.1,0-0.1,0h-0.1c-0.6,0-7.2-0.2-12.5-0.2h-1.4c1.7,0.7,3.4,1.2,5.2,1.3
	c0.5,0,0.6,0.2,0.6,0.4c0,0.4-2.7,2.6-6.2,4.3h5.6c1.9,0,4.2,0,6.2-0.2h0.3c0.3,0,0.5,0.1,0.5,0.5v0.1c-0.1,1.1-0.1,3.7-0.1,4.6
	v11.6c0,3.7,0,4.4,0.1,5.5L165.5,35.6z M152.5,6.8h-13.7c3.6,1.2,7.2,3.6,7.2,4.2c0,0.2-0.2,0.3-0.5,0.4c-1.3,0.3-2.6,0.8-3.8,1.5
	h8.2c1.2-1.7,2.1-3.6,2.4-5.7L152.5,6.8z M151.5,26.7h-6.7v5.4h6.7V26.7z M160.4,15.4H154V18c0,1.2,1.1,1.3,3.1,1.3
	c1,0,2.2,0,3.3-0.1L160.4,15.4z"/>
<path d="M206.3,32.7c-0.8,0-3.4,0-4.9,0h-8c0,1.1,0,2,0,2.7c0,3.9-2.2,5-5.3,5c-3,0-5.9-0.8-8.4-2.2c-0.1-0.1-0.2-0.3-0.2-0.5
	c0-0.7,0.5-1.8,1-1.8h0.1c1.6,0.5,3.2,0.8,4.9,0.8c1.9,0,2.7-0.6,2.7-2.9v-1.3h-4.4c-2.4,0-8.7,0.1-9.3,0.2h-0.1
	c-0.2,0-0.3-0.1-0.3-0.2c0-0.1,0-0.3,0.1-0.4c0.1-0.2,0.1-0.5,0.1-0.7c0-0.2,0-0.5-0.1-0.7c-0.1-0.2-0.1-0.4-0.1-0.6
	c0-0.1,0.1-0.2,0.2-0.2c0,0,0,0,0.1,0c0.1,0,0.2,0,0.3,0c0.7,0.2,6.9,0.2,9.3,0.2h4.5v-3h-5.8c-2.5,0-10.4,0.1-11,0.2h-0.2
	c-0.3,0-0.3-0.1-0.3-0.2c0-0.1,0-0.3,0.1-0.4c0.1-0.2,0.1-0.5,0.1-0.8c0-0.2,0-0.5-0.1-0.7c-0.1-0.2-0.1-0.4-0.1-0.5
	c0-0.1,0.1-0.2,0.2-0.3c0,0,0,0,0.1,0c0.1,0,0.2,0,0.3,0c0.6,0.1,8.5,0.3,11,0.3h5.8V22h-4c-1.8,0-8.8,0-9.3,0.2c-0.1,0-0.1,0-0.2,0
	c-0.2,0-0.3-0.1-0.3-0.3c0-0.1,0-0.3,0-0.4c0-0.2,0.1-0.4,0.1-0.6c0-0.3,0-0.5-0.1-0.8c0-0.2-0.1-0.4-0.1-0.5c0-0.2,0-0.3,0.2-0.3
	c0.1,0,0.2,0,0.3,0c0.6,0.2,7.5,0.3,9.3,0.3h4V17H181c-1.9,0-3.4,0-4.7,0h-0.4c-0.5,0-0.6,0-0.6-0.3v-0.2c0.1-0.7,0.2-1.5,0.2-2.3
	v-2.6c0-0.7,0-1.4-0.1-2.1V9.3c0-0.2,0-0.3,0.3-0.3s0.2,0,0.4,0c0.6,0,2.9,0.1,5,0.1h7V6.7h-4.6c-2.4,0-11,0.1-11.5,0.2h-0.2
	c-0.3,0-0.3-0.1-0.3-0.2c0-0.1,0-0.3,0.1-0.4c0.1-0.3,0.1-0.5,0.1-0.8c0-0.3,0-0.5-0.1-0.8c-0.1-0.2-0.1-0.4-0.1-0.6
	c0-0.2,0-0.3,0.2-0.3c0.1,0,0.2,0,0.3,0.1c0.6,0.1,9.1,0.3,11.5,0.3h4.6c0-1.1,0-2.4-0.1-3.1V0.9c0-0.3,0.1-0.4,0.5-0.4h0.5
	c0.3,0,0.6,0.1,0.9,0.1c1,0,1.9-0.1,2.9-0.4c0.1,0,0.3-0.1,0.4-0.1c0.2,0,0.3,0.2,0.3,0.4c0,0.1,0,0.3,0,0.4
	c-0.1,1.1-0.2,2.2-0.1,3.3h3.9c2.4,0,12.2-0.3,12.6-0.3h0.1c0.1,0,0.2,0.1,0.2,0.1s-0.1,0.3-0.1,0.6c0,0.3,0,0.6,0,0.9
	c0,0.3,0,0.5,0,0.8c0.1,0.1,0.1,0.3,0.1,0.4c0,0.2-0.1,0.2-0.3,0.2h-0.1c-0.6,0-10.1-0.2-12.6-0.2h-3.9v2.5h7.1c2.1,0,3.9,0,5.3-0.1
	h0.2c0.5,0,0.6,0.1,0.6,0.3s0,0.3,0,0.5c-0.1,0.6-0.1,1.2-0.1,1.8v2.9c0,0.7,0,1.5,0.1,2v0.2c0,0.4-0.1,0.4-0.6,0.4h-0.3
	c-0.9,0-3.4-0.1-5.3-0.1h-7.1v2.6h7.6c1.8,0,3.6,0,5.5-0.2h0.2c0.2,0,0.2,0.1,0.2,0.4V20c0,0.8,0,1.5,0,2.5v2.1
	c1.3,0,2.6-0.1,3.8-0.3c0,0,0.1,0,0.1,0s0.2,0.1,0.2,0.3c0,0.2,0,0.3-0.1,0.5c0,0.3,0,0.5,0,0.8c0,0.3,0,0.5,0,0.8
	c0,0.2,0.1,0.4,0.1,0.5c0,0.1-0.1,0.2-0.2,0.3c0,0,0,0-0.1,0h-0.1c-0.3,0-2.3-0.1-3.9-0.2V30c0,0.8,0.1,1.6,0.1,2.1v0.2
	c0,0.3-0.1,0.5-0.5,0.5L206.3,32.7z M188.2,11.4h-7.6v3.4h7.6V11.4z M201.3,11.4h-7.9v3.4h7.9V11.4z M201.6,22h-8.2v2.9h8.2V22z
	 M201.6,27.2h-8.2v3h8.2V27.2z"/>
<path d="M248.5,35.7c0,4-4.4,4.2-5.9,4.2c-2.5,0-5-0.5-7.4-1.3c-0.1,0-0.1-0.2-0.1-0.4c0-0.8,0.3-2.1,0.7-2.1l0,0
	c1.3,0.3,2.7,0.5,4,0.5c2.6,0,3.2-0.4,3.2-2.4v-3.3h-16.4v2.5c0,1.7,0,5.2,0.1,6.6c0,0.1,0,0.2,0,0.3s-0.1,0.2-0.3,0.2
	c-0.1,0-0.2,0-0.2,0c-0.7-0.1-1.4-0.1-2.1-0.1c-0.7,0-1.4,0-2.1,0.1c-0.1,0-0.3,0-0.4,0c-0.3,0-0.4-0.1-0.4-0.4V40
	c0.1-1.3,0.2-5.1,0.2-6.7V20c-2.2,1.7-4.4,3.1-6.8,4.4c-0.4,0-1.4-1.4-1.4-1.8l0,0c5.5-4.1,9.3-8.6,11.6-13.7c-4.6,0-9.6,0.1-10,0.2
	h-0.2c-0.3,0-0.4-0.1-0.4-0.3c0-0.2,0.1-0.3,0.1-0.5c0.1-0.3,0.1-0.6,0.1-0.9c0-0.2,0-0.5-0.1-0.7c-0.1-0.2-0.1-0.4-0.2-0.6
	c0-0.2,0.1-0.3,0.3-0.3c0.1,0,0.2,0,0.3,0c0.5,0.1,6.1,0.4,11.1,0.4c0.7-1.8,1.2-3.7,1.5-5.6c0-0.4,0.1-0.6,0.5-0.6
	c0.1,0,0.3,0,0.4,0.1c1.3,0.3,2.7,0.5,4,0.5c0.5,0,0.9,0,1.3,0h0.2c0.4,0,0.5,0.1,0.5,0.3s-1.5,4.3-2,5.3h8.1
	c5.4,0,12.1-0.3,12.4-0.3h0.1c0.2,0,0.2,0.1,0.2,0.2c0,0.2-0.1,0.4-0.2,0.6c-0.1,0.2-0.1,0.5-0.1,0.7c0,0.3,0,0.5,0.1,0.8
	c0.1,0.2,0.1,0.4,0.1,0.6c0,0.1-0.1,0.2-0.3,0.2h-0.1c-0.6,0-7-0.1-12.4-0.1h-9.4c-1,1.6-2.1,3.2-3.2,4.7H242c1.9,0,3.9,0,5.8-0.2
	h0.3c0.3,0,0.4,0,0.4,0.4V14c-0.1,1.3-0.1,3.2-0.1,3.9v12.6C248.4,32.3,248.4,33.8,248.5,35.7L248.5,35.7z M243,16.3h-16.4v4.5H243
	V16.3z M243,23.4h-16.4v4.8H243V23.4z"/>
<path d="M257.5,40c0.2-1.8,0.2-5.1,0.2-7.1V6.3c0-1.2,0-3.3-0.1-4.1c0-0.1,0-0.2,0-0.2c0-0.3,0.1-0.3,0.3-0.3h0.2
	c1.2,0.1,2.4,0.1,3.4,0.1h4.5c1.9,0,3.8,0,5.6-0.2h0.2c0.3,0,0.4,0.1,0.4,0.5v1.5c0,1.3-3.3,7-5.5,10.2c2.9,2.5,5.4,6.1,5.4,9.8
	c0,8.2-6.4,8.2-7.2,8.2c-0.8,0-1.6-0.1-2.4-0.3v2.7c0,1.4,0.1,3.9,0.1,5.4c0,0.2,0,0.3,0,0.5s0,0.3-0.2,0.3c-0.1,0-0.3,0-0.4-0.1
	c-0.6-0.1-1.2-0.2-1.8-0.2c-0.6,0-1.3,0.1-1.9,0.2c-0.2,0.1-0.5,0.1-0.7,0.1c-0.2,0-0.2-0.1-0.2-0.3L257.5,40z M262.5,4.3V29
	c0.3,0,0.7,0.1,1,0.1c2.7,0,4-2.3,4-5.4c0-2.9-2-5.6-3.7-7.3c-0.1-0.1-0.2-0.3-0.2-0.5c0-0.1,0-0.1,0-0.2c1.3-3.7,2.4-7.5,3.2-11.4
	L262.5,4.3z M284.8,33c0.3,0,0.7,1.2,0.7,1.7c0,0.1,0,0.2-0.1,0.2c-4.7,2.3-9.7,4.1-14.8,5.4c-0.1,0-0.3-0.1-0.4-0.6
	c-0.3-1.2-0.9-2.4-1.5-3.5c-0.1-0.2-0.2-0.4-0.2-0.6c0-0.3,0.3-0.4,0.7-0.4c1.5,0,3.1-0.2,4.7-0.3V5.8c0-1.1,0-2.1-0.1-3.2V2.3
	c0-0.2,0.1-0.3,0.5-0.3h0.2c1.3,0.1,2.9,0.1,5,0.1h6.2c2.3,0,4.7-0.1,7-0.4c0.1,0,0.2,0,0.3,0c0.2,0,0.3,0.1,0.3,0.4v0.3
	c0,0.8-0.1,2.5-0.1,3.5v10.8c0,0.8,0,2.1,0.1,2.7v0.1c0,0.3-0.2,0.5-0.6,0.5h-0.1c-0.7,0-2.4,0-3.9,0h-5c0.5,2.6,1.5,5,2.9,7.2
	c1.6-1.6,2.8-3.6,3.5-5.8c0.1-0.3,0.2-0.4,0.4-0.4s0.3,0.1,0.4,0.3c1.2,1,2.6,1.7,4.1,2.2c0.3,0.1,0.5,0.2,0.5,0.4
	c0,0.5-3.3,3.2-7.7,5c2.6,3.2,6,5,9.3,6.5c0.1,0.1,0.2,0.2,0.2,0.4c0,0.1-0.1,0.3-0.2,0.3c-1.9,1.2-3.7,2.5-4.3,3.4
	c-0.1,0.2-0.3,0.3-0.5,0.3c-0.3,0-8.8-4.1-10.8-19.8h-2.6v14.3c2-0.3,4-0.7,6-1.2L284.8,33z M288.1,4.5h-9.4v5.2h9.4V4.5z M288.1,12
	h-9.4v5.4h9.4V12z"/>
<path d="M310.2,1.4c0.3,0,0.5,0.1,0.8,0.3c1.7,0.5,3.4,0.8,5.2,0.8c0.5,0,0.7,0.2,0.7,0.5c0,0.2-0.1,0.5-0.2,0.7
	c-6.4,15.4-16.5,19.9-16.6,19.9c-0.4,0-1.3-1.1-1.3-1.5c0,0,0,0,0-0.1c5.7-4.2,10.8-14.6,11.1-20.1C310,1.6,310.1,1.4,310.2,1.4z
	 M324.4,23.1c7.3,5.9,12.2,11.7,12.2,12.4c0,0.2-0.2,0.4-0.4,0.5c-1.8,0.9-3.4,2.2-4.6,3.8c-0.1,0.2-0.3,0.3-0.5,0.3
	c-0.2,0-0.3-0.1-0.4-0.3c-0.7-1.9-1.5-3.9-2.4-5.7c-15.1,4-24.1,4.9-24.7,4.9c-0.2,0-0.4-0.1-0.5-0.5c-0.2-1.6-0.7-3.1-1.5-4.5
	c-0.2-0.2-0.3-0.4-0.3-0.6c0-0.2,0.2-0.4,0.6-0.4h0.1c1.4,0,2.9,0.1,4.4,0.1h1.6c3.1-5.6,5.3-11.8,6.4-18.1c0-0.3,0.2-0.4,0.4-0.4
	c0.2,0,0.4,0.1,0.5,0.1c1.8,0.6,3.6,0.9,5.5,0.9c0.3,0,0.5,0.2,0.5,0.4c-2.5,6.2-6.1,11.9-10.5,16.9c5.2-0.2,10.7-0.5,16.2-1.2
	c-1.4-2.5-3-5-4.7-7.3l0,0C322.9,23.9,323.6,23.4,324.4,23.1L324.4,23.1z M334.8,21.7c-0.1,0.2-0.3,0.3-0.5,0.3
	c-0.1,0-0.2,0-0.2-0.1c-9.1-6.2-12.4-19.8-12.4-19.8c0-0.4,1.2-0.9,2-0.9c0.3,0,0.5,0,0.6,0.2c3.3,8.1,8.4,12.8,15.5,15.9
	c0.2,0.1,0.3,0.2,0.3,0.3c0,0.2-0.1,0.3-0.3,0.4C337.4,19.4,335.5,20.7,334.8,21.7z"/>
<path d="M373.1,5.4h-17.4c-1.9,0-12.4,0.1-12.9,0.2h-0.2c-0.3,0-0.3-0.1-0.3-0.2c0-0.2,0.1-0.4,0.1-0.6c0.1-0.2,0.1-0.5,0.1-0.7
	c0-0.3,0-0.5-0.1-0.8c-0.1-0.2-0.1-0.5-0.1-0.7c0-0.2,0-0.3,0.3-0.3c0.1,0,0.2,0,0.3,0c0.5,0.1,7.9,0.3,12.9,0.3h15.4
	c2.4,0,4.8-0.1,7.2-0.4c0.1,0,0.2-0.1,0.2-0.1c0.3,0,0.3,0.1,0.3,0.4v0.3c-0.1,1.2-0.1,2.3-0.1,3.8v22.9c0,2,0,4.4,0,5.8
	c0,3.4-3.1,4.7-6,4.7c-3.2-0.1-6.4-0.7-9.3-2c-0.1,0-0.1-0.1-0.1-0.3c0-0.6,0.5-2,0.8-2l0,0c1.8,0.4,3.6,0.7,5.5,0.7
	c3,0,3.4-0.7,3.4-2.6L373.1,5.4z M369.5,12.7c-0.5,0-3.8-0.2-6.1-0.2h-12.2c-2.4,0-6,0.1-6.5,0.2h-0.2c-0.2,0-0.3-0.1-0.3-0.3
	c0-0.2,0-0.3,0.1-0.5c0-0.2,0.1-0.4,0.1-0.6c0-0.3,0-0.6-0.1-0.9c0-0.2-0.1-0.5-0.1-0.7c0-0.1,0.1-0.2,0.2-0.3c0,0,0,0,0,0
	c0.1,0,0.2,0,0.3,0c2.2,0.2,4.3,0.3,6.5,0.3h12.2c2.3,0,5.8-0.3,6.1-0.3h0.1c0.1,0,0.3,0.1,0.3,0.2c0,0,0,0,0,0.1
	c0,0.2-0.1,0.4-0.1,0.6c-0.1,0.3-0.1,0.5-0.1,0.8c0,0.3,0,0.6,0.1,0.9c0.1,0.2,0.1,0.3,0.1,0.5C369.9,12.5,369.8,12.6,369.5,12.7
	L369.5,12.7z M366.2,32c-0.9,0-3,0-4.7,0h-10.2c-2.2,0-3.2,0-4.4,0.1h-0.2c-0.5,0-0.8-0.1-0.8-0.5v-0.1c0.1-1,0.2-2.3,0.2-3.7V21
	c0-0.7-0.1-2.6-0.2-3.3c0-0.1,0-0.2,0-0.3c0-0.3,0.1-0.3,0.5-0.3h0.2c0.9,0,1.6,0.1,5.6,0.1h7.6c2.2,0,4.9,0,6.6-0.2h0.3
	c0.3,0,0.4,0,0.4,0.4c0,0.1,0,0.2,0,0.3c-0.1,1-0.1,1.9-0.1,2.9v7.1c0,1.4,0.1,2.5,0.1,3.5v0.3c0,0.3-0.1,0.5-0.6,0.5L366.2,32z
	 M361.5,19.8h-10V29h10V19.8z"/>
</svg>
