<?xml version="1.0" encoding="utf-8"?>
<!-- Generator: Adobe Illustrator 25.4.1, SVG Export Plug-In . SVG Version: 6.00 Build 0)  -->
<svg version="1.1" id="Layer_1" xmlns="http://www.w3.org/2000/svg" xmlns:xlink="http://www.w3.org/1999/xlink" x="0px" y="0px"
	 viewBox="0 0 260.4 226.8" style="enable-background:new 0 0 260.4 226.8;" xml:space="preserve">
<polygon points="189.4,67.9 194.6,18.6 145.3,18.6 "/>
<polygon points="130.4,160.5 179.7,160.5 184.9,111.2 "/>
<polygon points="64.5,18.6 15.2,18.6 10,67.9 "/>
<polygon points="5.4,111.2 0.2,160.5 49.6,160.5 "/>
<polygon points="91.8,33.4 104.5,21.8 114.9,33.4 136.7,33.4 106.8,0 69.9,33.4 "/>
<polygon points="145.5,127.1 187,89.6 153.4,52 151.1,73.9 165.1,89.6 147.8,105.2 "/>
<polygon points="103.1,145.7 90.3,157.3 80,145.7 58.1,145.7 88,179.1 124.9,145.7 "/>
<polygon points="43.8,105.2 29.7,89.6 47.1,73.8 49.3,52 7.9,89.6 41.5,127.1 "/>
<path d="M139.1,51.9h-29.8l0.9-8.7h-16l-0.9,8.7H63.6L62,67.5l21.3,16.8H60.2l-1.5,14.4h75.5l1.5-14.4h-22.5l24.3-16.8L139.1,51.9z
	 M112.6,67.5l-11,7.1h-5.5l-9.4-7.1l0.3-3.4H113L112.6,67.5z"/>
<polygon points="69.2,135.9 70.9,120 115.8,135.9 130.3,135.9 133.5,105.7 119,105.7 117.5,120 72.4,105.7 58,105.7 54.8,135.9 "/>
<polygon points="218.4,160.5 195.1,160.5 210,18.6 233.3,18.6 "/>
<polygon points="245.4,160.5 233.8,160.5 248.8,18.6 260.4,18.6 "/>
<path d="M13.9,208.4L13.9,208.4c-3.7-1-6-1.8-5.7-4.1c0.2-2,2.4-3.5,5.3-3.5c2.5-0.1,4.9,1.3,6.1,3.6c0.2,0.5,0.7,0.8,1.3,0.8
	c0.6,0,1.1-0.5,1.1-1.1c0-0.9,0.2-1.8,0.6-2.6c0.1-0.2,0.1-0.3,0.2-0.5c0-0.5-0.2-1-0.5-1.3c-1.2-1.3-4.6-2.8-8.1-2.8
	c-5.6,0-11.4,2.5-12,8.2c-0.5,4.4,2,7.3,7.9,8.9c6.1,1.7,6.7,3.6,6.5,4.9c-0.2,2.3-2.8,3.9-6.2,3.9c-3,0.1-5.8-1.5-7.2-4.1
	c-0.2-0.5-0.7-0.9-1.2-0.9c-0.6,0-1.1,0.5-1.1,1.1c0,0.9-0.3,1.8-0.7,2.7c-0.1,0.2-0.2,0.4-0.2,0.6c0,0.4,0.1,0.7,0.4,1
	c1.6,1.7,5.6,3.5,9.5,3.5c7.4,0,12.3-3.6,12.9-9.2C23.3,213.2,20.3,210,13.9,208.4z"/>
<path d="M40.4,197c-8.5,0-15.1,6.1-16,14.8c-0.6,3.9,0.5,7.9,3.1,11c2.6,2.7,6.2,4.2,9.9,4c8.5,0,15.1-6.1,16-14.8
	c0.6-3.9-0.6-7.9-3.1-11C47.8,198.3,44.1,196.8,40.4,197z M46.5,211.4c-0.6,5.3-2.6,11.7-9,11.7c-1.7,0.1-3.4-0.5-4.6-1.7
	c-1.5-1.7-2.1-4.7-1.7-8.9c0.6-5.3,2.6-11.7,9-11.7c1.7-0.1,3.4,0.5,4.6,1.8C46.4,204.2,47,207.2,46.5,211.4z"/>
<path d="M105.9,224.8c-3.5-9.7-7.7-23.9-8.5-26.7l-0.1-0.1c-0.2-0.4-0.6-0.7-1.1-0.6l0,0l-0.6,0.1c-0.6,0.2-1.3,0.2-1.9,0.2
	c-0.4,0-0.8,0.3-1,0.7c-3.6,7.9-9.4,19.1-13.4,25.5c-1.8-1.8-4.9-6.4-7-9.4l-0.1-0.1l-0.8-1.2c5.9-1.4,7.5-5,7.8-7.8
	c0.3-1.8-0.3-3.6-1.4-5c-1.6-1.8-4.3-2.7-8.1-2.7c-1.9,0-4.2,0.1-5.7,0.1h-0.3h-1.4c-1.4,0-3.3,0-4-0.1h-0.1c-0.6,0-1.1,0.5-1.2,1.1
	c-0.1,0.8-0.1,1.6-0.2,2.5v0.2c-0.1,1.3-0.2,2.6-0.3,4.1L55.3,217c-0.3,2.8-0.6,4.8-0.9,7.1l-0.1,1c-0.1,0.3,0,0.7,0.3,0.9
	c0.2,0.2,0.5,0.3,0.8,0.3h0.2c1.4-0.2,2.7-0.2,4.1,0h0.1c0.6,0,1.1-0.5,1.1-1.1c0.1-0.7,0.1-1.4,0.2-2.1v-0.4
	c0.1-1.7,0.2-3.5,0.5-5.6l0.4-3.6c0.6,0,1.6,0.1,2.2,0.1h0.5h0.2c2.3,3.7,5.8,9.5,7.3,12.2c0.2,0.4,0.6,0.6,1,0.6
	c0.2,0,0.4-0.1,0.6-0.1c0.1,0,0.1,0,0.2-0.1c0.6-0.1,1.2-0.1,1.8-0.1c0.8,0,1.6,0,2.6,0.1h0.2c0.3,0,0.5,0,0.7-0.1
	c0.1,0.1,0.3,0.1,0.4,0.1h0.1c0.4-0.1,0.7-0.1,1.1-0.1c0.5,0,1,0,1.5,0.1h0.2c0.5,0,0.9-0.3,1.1-0.8c1.1-2.5,1.7-3.9,3.2-6.8h10.1
	c0.7,2.2,0.9,3.1,1.2,4.8c0.1,0.5,0.3,1.1,0.4,1.9c0.1,0.6,0.6,1,1.2,0.9c1.7-0.2,3.3-0.2,5,0c0.6,0,1.1-0.5,1.2-1.1
	c0-0.1,0-0.2,0-0.2V225L105.9,224.8z M95.9,214.9h-7l4.4-8.9L95.9,214.9z M72.6,204.7c-0.3,3.4-3,5.1-8,5.1h-0.6
	c-0.7,0-1.5-0.1-2-0.1l0.9-8.2c1.3,0,3.4-0.1,4.8-0.1c2.2,0,3.6,0.4,4.3,1.2C72.6,203.1,72.8,203.9,72.6,204.7z"/>
<path d="M129.9,197.5h-0.2c-1.3,0.1-5.9,0.2-8.3,0.2h-5.8l-4.5-0.2c-0.6,0-1.1,0.5-1.2,1.1c0,0.6-0.1,1.3-0.1,2v0.1
	c-0.1,1.6-0.2,3.5-0.4,5.5l-1.2,10.8c-0.2,1.8-0.4,3.6-0.7,5.1h0.2h-0.2c-0.2,1.1-0.3,2.1-0.4,3c0,0.3,0.1,0.6,0.3,0.8
	c0.2,0.2,0.5,0.4,0.9,0.4l4.7-0.1h6.3l8.5,0.1c0.6,0,1.1-0.5,1.1-1.1v-0.1c0-0.4,0-0.7,0-1.1c0-0.2,0.1-0.5,0.2-1v-0.2
	c0-0.3,0-0.6-0.2-0.8c-0.3-0.3-0.7-0.4-1.1-0.3c-1.2,0.2-6.9,0.4-8.4,0.4H114l0.9-9h4.1c1.6,0,6.5,0.1,7.9,0.2
	c0.6,0.1,1.1-0.4,1.2-1c0,0,0,0,0,0v-0.2c0-0.3,0-0.6,0-0.9c0-0.3,0.1-0.5,0.2-0.8v-0.2c0-0.3-0.1-0.6-0.3-0.8
	c-0.2-0.2-0.5-0.3-0.8-0.4l0,0c-1.3,0.1-6,0.2-7.9,0.2h-3.9l0.8-7.4h5.6c1.6,0,5.6,0,7.6,0.2h0.1c0.5,0,1-0.4,1.1-0.9
	c0-0.1,0-0.2,0-0.3v-0.1c0-0.3-0.1-0.6-0.1-0.9c0.1-0.3,0.1-0.7,0.3-1v-0.3c0-0.3,0-0.6-0.2-0.8
	C130.4,197.6,130.1,197.5,129.9,197.5z"/>
<path d="M168.1,220.7c-0.2,0-0.5,0-0.7,0.2c-0.5,0.4-1.1,0.6-1.7,0.7c-1.1-0.2-2.2-0.7-2.9-1.6c1.8-2.2,3.5-4.6,5.1-7l0.1-0.1
	l0.1-0.4c0-0.5-0.2-0.9-0.6-1.2c-0.5-0.5-1-1.1-1.2-1.8c-0.1-0.5-0.5-0.8-1-0.8c-0.3,0-0.8,0.1-1.2,1.1c-1,2.6-2.3,5.1-3.9,7.4
	c-1.6-2.1-3-4.2-4.3-6.5c4.1-2.4,6.2-4.9,6.5-7.8c0.2-1.4-0.2-2.9-1.2-4c-1.4-1.3-3.2-2-5.1-1.9c-6.4,0-8.6,4.6-8.8,7.1
	c-0.2,1.9,0.3,3.8,1.8,6.3c-4.1,2.1-6.8,5.4-7.2,8.7c-0.2,1.9,0.3,3.9,1.6,5.4c1.4,1.5,3.5,2.3,6.3,2.3c3.1-0.1,6.1-1,8.6-2.6
	c1.4,1.5,3.2,2.4,5.2,2.5c3.3,0,6.1-3.1,6.2-3.9c0-0.5-0.2-1.1-0.5-1.4C168.9,220.9,168.5,220.7,168.1,220.7z M155.9,221.3
	c-1.3,0.8-2.8,1.2-4.3,1.3c-1,0.1-2-0.3-2.7-1c-0.7-0.9-1-2.1-0.9-3.3c0.3-1.8,1.3-3.4,2.9-4.4C152.4,216.5,154.1,218.9,155.9,221.3
	L155.9,221.3z M157.5,203.1c-0.2,1.8-1.2,3.2-3.3,4.7c-0.7-1.3-1.1-2.7-1.2-4.2l0,0c0.1-0.6,0.5-3.1,2.9-3.1c0.5,0,0.9,0.1,1.3,0.4
	C157.5,201.6,157.7,202.4,157.5,203.1z"/>
<path d="M199.4,197c-8.6-0.1-15.9,6.4-16.7,15c-0.5,4.5,0.5,8.2,2.9,10.9s5.7,3.9,9.8,3.9c6,0,11.4-2.3,11.5-4.1c0-0.2,0-0.4,0-0.5
	c-0.1-0.4-0.1-0.7,0-1.1c0-0.2,0.1-0.4,0.1-0.5s0-0.3,0.1-0.6c0.1-0.4,0-0.8-0.3-1.1c-0.2-0.2-0.5-0.3-0.7-0.3
	c-0.4,0-0.8,0.2-1.1,0.5c-2.3,2.2-5.4,3.5-8.6,3.6c-1.8,0.1-3.5-0.6-4.7-1.9c-1.6-1.8-2.3-4.7-1.9-8.3c0.8-7.7,4-11.7,9.4-11.7
	c2.5-0.1,4.8,1.1,6,3.3c0.2,0.5,0.7,0.8,1.2,0.9c0.6,0,1.1-0.5,1.1-1.1c0.1-0.9,0.3-1.8,0.8-2.6l-0.1-0.1c0.1-0.2,0.1-0.3,0.1-0.5
	c0-0.4-0.1-0.7-0.4-1C206.9,198.4,204.1,197,199.4,197z"/>
<path d="M224.8,197c-8.5,0-15.1,6.1-16,14.8c-0.6,3.9,0.5,7.9,3.1,11c2.6,2.7,6.2,4.2,9.9,4c8.5,0,15.1-6.1,16-14.8
	c0.6-3.9-0.6-7.9-3.1-11C232.1,198.3,228.5,196.8,224.8,197z M230.9,211.4c-0.6,5.3-2.6,11.7-9,11.7c-1.7,0.1-3.4-0.5-4.6-1.7
	c-1.6-1.7-2.1-4.7-1.7-8.9c0.6-5.3,2.6-11.7,8.9-11.7c1.7-0.1,3.4,0.5,4.6,1.8C230.8,204.2,231.3,207.2,230.9,211.4z"/>
<path d="M245,220.1c-0.7-0.7-1.6-1.2-2.6-1.1c-2.1,0-3.9,1.6-4.1,3.7c-0.2,1.9,1.1,3.6,3,3.9c0.2,0,0.3,0,0.5,0
	c2.1,0,3.9-1.6,4.1-3.7C246,221.8,245.7,220.8,245,220.1z"/>
</svg>
