<?xml version="1.0" encoding="utf-8"?>
<!-- Generator: Adobe Illustrator 25.4.1, SVG Export Plug-In . SVG Version: 6.00 Build 0)  -->
<svg version="1.1" id="Layer_1" xmlns="http://www.w3.org/2000/svg" xmlns:xlink="http://www.w3.org/1999/xlink" x="0px" y="0px"
	 viewBox="0 0 137.5 137.7" style="enable-background:new 0 0 137.5 137.7;" xml:space="preserve">
<polygon points="23.2,86.5 0,86.5 0,0 86.5,0 86.5,20.4 73.2,20.4 73.2,13.3 13.3,13.3 13.3,73.2 23.2,73.2 "/>
<path d="M124.9,63.9c-6.7-6.8-15.5-11.1-25-12.3v13.5c16.2,3.1,26.9,18.7,23.9,35s-18.7,26.9-35,23.9c-12.2-2.3-21.7-11.9-23.9-24
	H51.4c3,23.7,24.6,40.5,48.3,37.5c23.7-3,40.5-24.6,37.5-48.3C136,79.6,131.7,70.7,124.9,63.9z"/>
<path d="M75.5,50.5"/>
<polygon points="36.6,86.5 36.6,33.7 50.2,33.7 61.5,66.3 72.9,33.7 86.5,33.7 86.5,86.5 75.2,86.5 75.2,51.8 66.1,79.8 57,79.8 
	47.8,51.8 47.8,86.5 "/>
</svg>
