<?xml version="1.0" encoding="utf-8"?>
<!-- Generator: Adobe Illustrator 25.4.1, SVG Export Plug-In . SVG Version: 6.00 Build 0)  -->
<svg version="1.1" id="Layer_1" xmlns="http://www.w3.org/2000/svg" xmlns:xlink="http://www.w3.org/1999/xlink" x="0px" y="0px"
	 viewBox="0 0 1024 566.9" style="enable-background:new 0 0 1024 566.9;" xml:space="preserve">
<style type="text/css">
	.st0{stroke:#000000;stroke-width:0.5;stroke-miterlimit:10;}
</style>
<path class="st0" d="M37.7,565.1c-1.6-1.1-2.8-2.6-3.5-4.4L2.9,482.9c-0.5-1.2-0.8-2.4-0.8-3.7c0-1.2,0.3-2.4,0.7-3.5
	c0.5-1.2,1.1-2.2,2-3.1c3.1-3.4,8.2-3.9,12-1.4c1.6,1.1,2.9,2.6,3.6,4.4L43,531.9l22.6-56.3c0.7-1.8,1.9-3.3,3.5-4.3
	c3.8-2.5,8.9-2,12,1.3c0.8,0.9,1.4,1.9,1.9,3c0.4,1.1,0.7,2.2,0.7,3.4c0,1.3-0.3,2.6-0.8,3.8l-30.8,77c-0.1,0.5-0.3,1-0.6,1.5
	c-0.7,1.6-1.9,3-3.5,3.9c-1.5,0.9-3.2,1.4-4.9,1.5h-0.3C40.9,566.7,39.2,566.1,37.7,565.1z"/>
<path class="st0" d="M101.6,563.9c-13-5.6-21.4-18.5-21.4-32.7c0-4.7,0.9-9.4,2.7-13.7c1.8-4.3,4.3-8.1,7.5-11.4
	c3.2-3.3,7-5.9,11.1-7.7c8.5-3.6,18.1-3.6,26.6,0c4.2,1.8,7.9,4.3,11.1,7.6c3.2,3.2,5.7,7,7.5,11.1c1.8,4.3,2.8,8.9,2.9,13.5v26.1
	c0.1,2.6-0.9,5.1-2.8,7c-0.9,0.9-2,1.6-3.1,2.1c-1.2,0.5-2.5,0.8-3.8,0.8c-1.6,0-3.3-0.4-4.7-1.2c-1.4-0.8-2.5-2-3.3-3.4
	c-5.2,3-11.1,4.6-17.1,4.6C110.3,566.6,105.8,565.7,101.6,563.9z M121,546c1.9-0.8,3.6-1.9,5.1-3.4c1.5-1.5,2.6-3.2,3.4-5.2
	c1.6-4,1.6-8.4,0-12.4c-0.8-1.9-2-3.7-3.4-5.2c-3-3-7-4.7-11.2-4.7c-2.1,0-4.1,0.4-6,1.2c-1.9,0.8-3.6,2-5,3.4
	c-1.5,1.5-2.6,3.2-3.4,5.2c-1.7,4-1.7,8.4,0,12.4c0.8,1.9,2,3.7,3.4,5.2c1.4,1.5,3.1,2.6,5,3.4c1.9,0.8,3.9,1.2,6,1.2
	C117,547.2,119.1,546.8,121,546L121,546z"/>
<path class="st0" d="M166.9,565.1c-1.2-0.5-2.2-1.1-3.1-2c-1.9-1.7-3-4.1-2.9-6.7v-26.2c0-4.6,0.9-9.1,2.6-13.3
	c1.7-4.1,4.2-7.9,7.3-11.1c3.1-3.2,6.8-5.7,10.8-7.4c4.1-1.8,8.5-2.7,13-2.7c4.5,0,9,0.9,13.2,2.7c4.2,1.7,7.9,4.3,11.1,7.4
	c3.2,3.2,5.8,7,7.6,11.1c1.8,4.2,2.8,8.7,2.7,13.3v26.2c0.1,2.5-0.9,4.9-2.6,6.7c-0.9,0.9-1.9,1.5-3,2c-1.1,0.5-2.4,0.7-3.6,0.7
	c-1.3,0-2.6-0.2-3.7-0.7c-1.1-0.5-2.1-1.1-3-2c-1.9-1.7-2.9-4.1-2.9-6.7v-26.1c0-2-0.5-4-1.4-5.8c-0.8-1.9-2.1-3.5-3.6-4.9
	c-1.5-1.4-3.2-2.5-5.1-3.3c-1.8-0.8-3.8-1.2-5.8-1.2c-2,0-3.9,0.4-5.7,1.1c-1.7,0.7-3.3,1.7-4.6,3.1c-2.8,2.8-4.3,6.6-4.4,10.5v26.5
	c0.1,5.2-4.1,9.4-9.2,9.4c0,0,0,0,0,0C169.3,565.8,168.1,565.5,166.9,565.1z"/>
<path class="st0" d="M246.1,486.8c-0.9-1-1.7-2.1-2.2-3.3c-0.5-1.2-0.8-2.6-0.8-3.9c0-2.8,1.1-5.4,3.1-7.3c1.8-2,4.4-3,7.1-3
	c1.3,0,2.7,0.3,3.9,0.8c1.2,0.5,2.3,1.3,3.3,2.2c4,4.1,4,10.6,0,14.6c-0.9,1-2,1.7-3.3,2.2c-1.2,0.5-2.6,0.8-3.9,0.8
	C250.5,489.8,247.9,488.7,246.1,486.8z M249.5,565.8c-1.1-0.5-2.1-1.2-3-2.1c-0.9-0.9-1.6-1.9-2.1-3.1c-0.5-1.2-0.8-2.4-0.8-3.7
	v-51.7c0-1.3,0.3-2.5,0.8-3.7c0.5-1.2,1.2-2.2,2.1-3.1c0.9-0.9,1.9-1.6,3.1-2.1c1.2-0.5,2.5-0.8,3.7-0.8c1.2,0,2.5,0.3,3.6,0.8
	c1.1,0.5,2.1,1.2,3,2.1c0.8,0.9,1.5,1.9,2,3c0.5,1.2,0.7,2.4,0.7,3.7V557c0,1.3-0.3,2.5-0.8,3.7c-0.5,1.1-1.1,2.2-2,3.1
	c-0.9,0.9-1.9,1.6-3,2.1c-1.1,0.5-2.4,0.8-3.6,0.8C251.9,566.6,250.7,566.3,249.5,565.8L249.5,565.8z"/>
<path class="st0" d="M295.4,564.1c-2.9-1.1-5.6-2.7-7.9-4.8c-2.3-2.1-4.1-4.7-5.3-7.6c-1.3-3-1.9-6.2-1.9-9.5v-62
	c-0.1-2.6,0.9-5,2.7-6.8c1.6-1.8,4-2.9,6.4-2.8c1.3,0,2.6,0.3,3.7,0.8c1.2,0.5,2.3,1.2,3.2,2.1c0.9,0.9,1.6,2,2.1,3.1
	c0.5,1.2,0.8,2.4,0.8,3.7v62.4c0.2,2.8,2,4.1,5.5,4.1c1.3,0,2.5,0.2,3.7,0.7c1.1,0.4,2.2,1.1,3,2c0.9,0.9,1.5,1.9,2,3
	c0.9,2.4,0.9,5,0,7.4c-0.9,2.3-2.7,4.1-5,5c-1.2,0.5-2.4,0.7-3.7,0.7C301.6,565.8,298.4,565.2,295.4,564.1z"/>
<path class="st0" d="M341,564.1c-2.9-1.1-5.6-2.7-7.9-4.8c-2.3-2.1-4.1-4.7-5.3-7.6c-1.3-3-2-6.2-1.9-9.5v-62
	c-0.1-2.6,0.9-5,2.7-6.8c1.6-1.8,4-2.9,6.4-2.8c1.3,0,2.6,0.2,3.8,0.7c1.2,0.5,2.3,1.2,3.2,2.1c0.9,0.9,1.6,2,2.1,3.1
	c0.5,1.2,0.8,2.4,0.8,3.7v62.5c0.2,2.8,2,4.1,5.5,4.1c1.3,0,2.6,0.2,3.7,0.7c1.1,0.4,2.1,1.1,3,2c0.9,0.9,1.6,1.9,2,3
	c0.9,2.4,0.9,5,0,7.4c-0.4,1.1-1.1,2.2-2,3.1c-0.9,0.9-1.9,1.5-3,2c-1.2,0.5-2.4,0.7-3.7,0.7C347.2,565.8,344,565.2,341,564.1z"/>
<path class="st0" d="M386.6,563.9c-17.8-7.8-26.1-28.4-18.7-46.4c1.8-4.3,4.3-8.1,7.5-11.4c3.2-3.3,7-5.9,11.1-7.7
	c8.5-3.6,18.1-3.6,26.6,0c4.2,1.8,7.9,4.3,11.1,7.6c6.5,6.6,10.2,15.4,10.4,24.7v26.1c0.1,2.6-0.9,5.1-2.8,7c-0.9,0.9-2,1.6-3.1,2.1
	c-1.2,0.5-2.5,0.8-3.8,0.8c-1.6,0-3.2-0.4-4.7-1.2c-1.4-0.8-2.5-2-3.3-3.4c-5.2,3-11.1,4.6-17.1,4.6
	C395.3,566.7,390.8,565.7,386.6,563.9z M406,546c1.9-0.8,3.6-2,5-3.4c1.5-1.5,2.6-3.2,3.4-5.2c1.6-4,1.6-8.4,0-12.4
	c-0.8-1.9-2-3.7-3.4-5.2c-1.4-1.5-3.1-2.6-5-3.4c-1.9-0.8-4-1.2-6.1-1.2c-2.1,0-4.1,0.4-6,1.2c-1.9,0.8-3.6,2-5,3.4
	c-1.5,1.5-2.6,3.2-3.5,5.2c-1.7,4-1.7,8.4,0,12.4c0.8,1.9,2,3.7,3.5,5.2c1.4,1.5,3.1,2.6,5,3.4c1.9,0.8,3.9,1.2,6,1.2
	C402,547.2,404.1,546.8,406,546L406,546z"/>
<path class="st0" d="M490.5,565.9c-1.1-0.5-2.1-1.1-3-2c-0.8-0.9-1.5-1.9-2-3.1c-0.5-1.2-0.7-2.4-0.7-3.7v-77.7
	c0-1.3,0.2-2.6,0.7-3.7c0.5-1.1,1.1-2.2,2-3.1c0.9-0.9,1.9-1.6,3-2.1c1.2-0.5,2.4-0.8,3.7-0.8h26.7c4.7,0,9.4,0.9,13.7,2.8
	c4.3,1.8,8.1,4.4,11.4,7.7c3.3,3.3,6,7.3,7.7,11.7c1.8,4.7,2.8,9.6,2.7,14.6c0,9.5-3.7,18.6-10.4,25.4c-3.3,3.3-7.1,5.9-11.4,7.7
	c-4.3,1.8-9,2.8-13.7,2.8h-17.3v14.7c0,1.3-0.2,2.5-0.8,3.7c-0.5,1.1-1.1,2.2-2,3.1c-1.7,1.8-4.2,2.8-6.7,2.8
	C493,566.7,491.7,566.4,490.5,565.9z M521.2,523.2c2.1,0,4.2-0.5,6.2-1.3c2-0.9,3.7-2.1,5.2-3.7c1.5-1.5,2.6-3.3,3.5-5.3
	c0.8-2,1.3-4.1,1.3-6.2c0-2.3-0.5-4.6-1.3-6.8c-1.5-4.2-4.7-7.5-8.7-9.3c-1.9-0.9-4-1.3-6.1-1.3h-17.5v33.9H521.2z"/>
<path class="st0" d="M572.4,565.1c-1.1-0.4-2.2-1.1-3.1-2c-0.9-0.9-1.6-1.9-2.1-3c-0.5-1.2-0.8-2.4-0.8-3.7v-24.5
	c0.1-4.8,1.2-9.5,3.1-13.8c1.9-4.3,4.5-8.2,7.9-11.6c3.3-3.3,7.1-5.9,11.4-7.8c4.3-1.9,8.9-2.9,13.6-3h0.6c2.7-0.2,5.3,0.8,7.2,2.7
	c3.6,4,3.5,10-0.2,13.8c-0.9,0.9-2,1.5-3.2,2c-1.2,0.5-2.5,0.7-3.8,0.7h-0.4c-2.3,0-4.5,0.5-6.5,1.5c-2,0.9-3.9,2.2-5.4,3.8
	c-1.6,1.6-2.9,3.6-3.8,5.7c-0.9,2.1-1.4,4.4-1.4,6.8v23.7c0,1.3-0.2,2.6-0.7,3.8c-0.4,1.1-1.1,2.2-2,3c-1.7,1.8-4.1,2.8-6.5,2.8
	C574.8,565.8,573.6,565.6,572.4,565.1z"/>
<path class="st0" d="M637.3,563.9c-4.2-1.8-8-4.4-11.1-7.7c-10-10.2-13-25.5-7.5-38.7c1.8-4.3,4.3-8.1,7.5-11.4
	c3.2-3.3,7-5.9,11.1-7.7c8.5-3.7,18.2-3.7,26.8,0c4.2,1.8,8,4.4,11.1,7.6c3.2,3.3,5.8,7.2,7.5,11.5c3.6,8.8,3.6,18.6,0,27.3
	c-1.7,4.2-4.3,8.1-7.5,11.4c-3.2,3.2-7,5.8-11.1,7.6C655.6,567.5,645.9,567.5,637.3,563.9L637.3,563.9z M656.8,546
	c1.9-0.8,3.6-1.9,5.1-3.4c1.5-1.5,2.6-3.2,3.4-5.2c1.6-4,1.6-8.4,0-12.4c-0.8-1.9-2-3.7-3.4-5.2c-3-3-7-4.7-11.2-4.7
	c-2.1,0-4.1,0.4-6,1.2c-1.9,0.8-3.6,2-5,3.4c-1.5,1.5-2.6,3.2-3.5,5.2c-1.7,4-1.7,8.4,0,12.4c0.8,1.9,2,3.7,3.5,5.2
	c1.4,1.5,3.1,2.6,5,3.4c1.9,0.8,3.9,1.2,6,1.2C652.8,547.2,654.9,546.8,656.8,546L656.8,546z"/>
<path class="st0" d="M715.5,563.9c-4.2-1.8-8-4.4-11.1-7.6c-3.2-3.3-5.7-7.1-7.5-11.4c-1.8-4.3-2.7-9-2.7-13.7v-47
	c0-1.3,0.3-2.6,0.8-3.8c0.5-1.2,1.2-2.3,2.1-3.2c0.9-0.9,1.9-1.6,3-2.1c1.2-0.5,2.4-0.8,3.7-0.8c1.3,0,2.6,0.3,3.7,0.8
	c1.2,0.5,2.3,1.2,3.2,2.1c0.9,0.9,1.6,2,2.2,3.2c0.5,1.2,0.8,2.5,0.8,3.8v9.3h21.9c1.3,0,2.5,0.3,3.7,0.8c1.1,0.5,2.2,1.2,3.1,2.1
	c0.8,0.9,1.5,2,2,3.2c0.5,1.2,0.8,2.5,0.8,3.7c0,2.5-1,4.8-2.8,6.5c-0.9,0.9-2,1.5-3.1,2c-1.2,0.5-2.4,0.7-3.7,0.7h-21.8v18.8
	c0,2.1,0.4,4.2,1.1,6.2c2.2,5.9,7.9,9.8,14.2,9.8c4.1,0,7.4-1.1,9.8-3.4c1.9-2,4.5-3.2,7.2-3.3c2.2,0,4.4,1,5.9,2.6
	c1.7,1.7,2.6,4,2.6,6.4c0,3.1-1.3,6.1-3.4,8.3c-2.8,2.8-6.3,5.1-10,6.5C732.8,567.6,723.7,567.4,715.5,563.9L715.5,563.9z"/>
<path class="st0" d="M781.3,563.9c-4.2-1.8-8-4.4-11.1-7.7c-10-10.2-13-25.5-7.5-38.7c1.8-4.3,4.3-8.1,7.5-11.4
	c3.2-3.3,7-5.9,11.1-7.7c8.5-3.7,18.2-3.7,26.8,0c4.2,1.8,8,4.4,11.1,7.6c3.2,3.3,5.7,7.2,7.5,11.4c3.6,8.8,3.6,18.6,0,27.3
	c-1.8,4.2-4.3,8.1-7.5,11.4c-3.2,3.2-7,5.8-11.1,7.6C799.5,567.5,789.8,567.5,781.3,563.9L781.3,563.9z M800.8,546
	c1.9-0.8,3.6-1.9,5-3.4c1.5-1.5,2.6-3.2,3.4-5.2c1.6-4,1.6-8.4,0-12.4c-0.8-1.9-2-3.7-3.4-5.2c-1.4-1.5-3.2-2.6-5-3.4
	c-1.9-0.8-4-1.2-6.1-1.2c-2.1,0-4.1,0.4-6,1.2c-1.9,0.8-3.6,2-5,3.4c-1.5,1.5-2.6,3.2-3.5,5.2c-1.7,4-1.7,8.4,0,12.4
	c0.8,1.9,2,3.7,3.5,5.2c1.4,1.5,3.1,2.6,5,3.4c1.9,0.8,3.9,1.2,6,1.2C796.7,547.2,798.8,546.8,800.8,546z"/>
<path class="st0" d="M858.2,563.9c-8.6-3.5-15.4-10.2-19-18.8c-1.9-4.3-2.8-9-2.8-13.7c0-4.8,0.9-9.5,2.8-13.9
	c1.8-4.3,4.4-8.2,7.7-11.5c6.7-6.6,15.7-10.3,25.1-10.3c4.6,0,9.1,0.8,13.3,2.4c4,1.6,7.7,4,10.6,7.2c1.1,1.1,1.9,2.4,2.5,3.8
	c0.6,1.3,0.9,2.8,0.9,4.2c0,2.7-1.3,5.3-3.4,7c-0.9,0.8-1.9,1.4-3.1,1.9c-0.9,0.4-2,0.6-3,0.7c-1.5,0-2.9-0.3-4.2-1
	c-1.6-0.9-3-1.9-4.4-3c-1.4-1.2-3.1-2.1-4.8-2.7c-1.6-0.5-3.3-0.8-5-0.8c-2.1,0-4.2,0.4-6.2,1.3c-3.8,1.7-6.7,4.8-8.3,8.6
	c-0.8,1.9-1.2,3.9-1.2,6c0,1.9,0.4,3.8,1.1,5.5c0.7,1.8,1.7,3.5,3,5c1.3,1.5,2.9,2.8,4.7,3.8c1.7,0.9,3.7,1.4,5.6,1.5h0.7
	c0.2,0.1,0.4,0.1,0.6,0.1c1.7,0,3.4-0.3,5-0.8c1.7-0.6,3.3-1.5,4.7-2.7c1.3-1.1,2.7-2.2,4.3-3c1.3-0.7,2.7-1,4.2-1
	c1,0,2.1,0.2,3.1,0.6c1.1,0.4,2.2,1.1,3.1,1.9c2.1,1.7,3.4,4.3,3.4,7c0,1.4-0.3,2.9-0.8,4.2c-0.6,1.4-1.4,2.7-2.5,3.7
	c-3,3.2-6.7,5.6-10.7,7.2c-4.2,1.6-8.7,2.5-13.3,2.4C867.2,566.7,862.6,565.7,858.2,563.9z"/>
<path class="st0" d="M928.5,563.9c-17.8-7.8-26.1-28.4-18.7-46.4c1.8-4.3,4.3-8.1,7.5-11.4c3.2-3.3,7-5.9,11.1-7.7
	c8.5-3.7,18.2-3.7,26.8,0c4.2,1.8,8,4.4,11.1,7.6c3.2,3.3,5.7,7.2,7.5,11.4c5.5,13.2,2.5,28.5-7.5,38.7c-3.2,3.2-7,5.8-11.1,7.6
	C946.7,567.5,937.1,567.5,928.5,563.9L928.5,563.9z M948,546c1.9-0.8,3.6-2,5-3.4c1.5-1.5,2.6-3.2,3.4-5.2c1.6-4,1.6-8.4,0-12.4
	c-0.8-1.9-2-3.7-3.4-5.2c-1.4-1.5-3.1-2.6-5-3.4c-1.9-0.8-4-1.2-6.1-1.2c-2.1,0-4.1,0.4-6,1.2c-1.9,0.8-3.6,2-5,3.4
	c-1.5,1.5-2.6,3.2-3.5,5.2c-1.7,4-1.7,8.4,0,12.4c0.8,1.9,2,3.7,3.5,5.2c1.4,1.5,3.1,2.6,5,3.4c1.9,0.8,3.9,1.2,6,1.2
	C944,547.2,946.1,546.8,948,546L948,546z"/>
<path class="st0" d="M1005.1,564.1c-2.9-1.1-5.6-2.7-7.9-4.8c-2.3-2.1-4.1-4.7-5.3-7.6c-1.3-3-1.9-6.2-1.9-9.5v-62
	c-0.1-2.6,0.9-5,2.7-6.8c1.6-1.8,4-2.9,6.4-2.8c1.3,0,2.6,0.3,3.7,0.8c1.2,0.5,2.3,1.2,3.2,2.1c0.9,0.9,1.6,2,2.1,3.1
	c0.5,1.2,0.8,2.4,0.8,3.7v62.4c0.2,2.8,2,4.1,5.5,4.1c1.3,0,2.5,0.2,3.7,0.7c1.1,0.4,2.2,1.1,3,2c0.9,0.9,1.5,1.9,2,3
	c0.9,2.4,0.9,5,0,7.4c-0.9,2.3-2.7,4.1-5,5c-1.2,0.5-2.4,0.7-3.7,0.7C1011.3,565.8,1008.1,565.2,1005.1,564.1z"/>
<polygon points="375.8,266.1 521.7,266.1 448.7,142.1 "/>
<path d="M1011.4,0H10.5C4.7,0,0,4.7,0,10.5v367.2c0,5.8,4.7,10.5,10.5,10.5h1000.9c5.8,0,10.5-4.7,10.5-10.5V10.5
	C1021.8,4.7,1017.2,0,1011.4,0z M227.6,307.3c-7.3,0-14.1-3.9-17.8-10.2l-109-185.2c-5.8-9.8-2.5-22.4,7.3-28.2
	c3.2-1.9,6.8-2.9,10.5-2.9h218c11.4,0,20.6,9.2,20.6,20.6c0,3.7-1,7.3-2.9,10.5l-109,185.2C241.7,303.4,234.9,307.3,227.6,307.3z
	 M575.6,296.9c-3.7,6.4-10.5,10.4-17.9,10.4h-218c-11.4,0-20.6-9.2-20.6-20.6c0-3.7,1-7.3,2.9-10.5L431,91
	c5.8-9.8,18.4-13.1,28.2-7.3c3,1.8,5.5,4.3,7.3,7.3l109,185.2C579.3,282.6,579.3,290.5,575.6,296.9L575.6,296.9z M634.9,264.5
	c-13.3-0.2-23.8-11.2-23.6-24.4c0.2-13.3,11.2-23.8,24.4-23.6c13.1,0.2,23.6,10.9,23.6,24C659.2,253.9,648.2,264.7,634.9,264.5
	C634.9,264.5,634.9,264.5,634.9,264.5L634.9,264.5z M634.9,171.6c-13.3-0.2-23.8-11.2-23.6-24.4c0.2-13.3,11.2-23.8,24.4-23.6
	c13.1,0.2,23.6,10.9,23.6,24C659.2,161,648.2,171.7,634.9,171.6C634.9,171.6,634.9,171.6,634.9,171.6L634.9,171.6z M712,307.3
	c-11.4,0-20.6-9.2-20.6-20.6c0-2.9,0.6-5.8,1.8-8.4l82.2-185.2c4.6-10.4,16.8-15.1,27.2-10.5c10.4,4.6,15.1,16.8,10.5,27.2
	L730.8,295C727.5,302.5,720.1,307.3,712,307.3z M922.1,109.9L839.8,295c-4.6,10.4-16.8,15.1-27.2,10.5
	c-10.4-4.6-15.1-16.8-10.5-27.2l82.2-185.2c4.6-10.4,16.8-15.1,27.2-10.5C922,87.2,926.7,99.4,922.1,109.9L922.1,109.9z"/>
<polygon points="227.6,246.1 300.6,122.1 154.7,122.1 "/>
</svg>
